<?xml version="1.0" encoding="utf-8"?>
<!-- Generator: Adobe Illustrator 19.1.0, SVG Export Plug-In . SVG Version: 6.00 Build 0)  -->
<svg version="1.1" id="Layer_1" xmlns="http://www.w3.org/2000/svg" xmlns:xlink="http://www.w3.org/1999/xlink" x="0px" y="0px"
	 viewBox="0 0 800 400" enable-background="new 0 0 800 400" xml:space="preserve">
<g>
	
		<image overflow="visible" opacity="0.2" width="755" height="369" xlink:href="64C499029CA6F037.png"  transform="matrix(1 0 0 1 19 21)">
	</image>
	<g>
		<path fill="#E2E2E2" d="M767,46c0-13.255-10.745-24-24-24H43c-13.255,0-24,10.745-24,24v314c0,13.255,10.745,24,24,24h700
			c13.255,0,24-10.745,24-24V46z"/>
	</g>
</g>
<g>
	
		<image overflow="visible" opacity="0.2" width="723" height="334" xlink:href="64C499029CA6F035.png"  transform="matrix(1 0 0 1 32 36)">
	</image>
	<g>
		<path fill="#EFEFEF" d="M748,63c0-11.046-8.954-20-20-20H58c-11.046,0-20,8.954-20,20v281c0,11.046,8.954,20,20,20h670
			c11.046,0,20-8.954,20-20V63z"/>
	</g>
</g>
<path fill="#FFFFFF" stroke="#848484" stroke-miterlimit="10" d="M171.5,57.5c0,3.866-3.134,7-7,7h-9c-3.866,0-7-3.134-7-7l0,0
	c0-3.866,3.134-7,7-7h9C168.366,50.5,171.5,53.634,171.5,57.5L171.5,57.5z"/>
<path fill="#FFFFFF" stroke="#848484" stroke-miterlimit="10" d="M631.5,57.5c0,3.866-3.134,7-7,7h-9c-3.866,0-7-3.134-7-7l0,0
	c0-3.866,3.134-7,7-7h9C628.366,50.5,631.5,53.634,631.5,57.5L631.5,57.5z"/>
<path fill="#FFFFFF" stroke="#848484" stroke-miterlimit="10" d="M171.5,350.5c0,3.866-3.134,7-7,7h-9c-3.866,0-7-3.134-7-7l0,0
	c0-3.866,3.134-7,7-7h9C168.366,343.5,171.5,346.634,171.5,350.5L171.5,350.5z"/>
<path fill="#FFFFFF" stroke="#848484" stroke-miterlimit="10" d="M631.5,350.5c0,3.866-3.134,7-7,7h-9c-3.866,0-7-3.134-7-7l0,0
	c0-3.866,3.134-7,7-7h9C628.366,343.5,631.5,346.634,631.5,350.5L631.5,350.5z"/>
<path fill="#F9F9F9" d="M42,65.335c3.532-20.05,16-22.667,16-22.667C38.104,42.659,38,62,38,62s-2.369,14.698,0,52.5
	C38,114.5,39.666,78.584,42,65.335z"/>
<g>
	<rect x="52" y="57.5" fill="#EFEFEF" stroke="#A5A6A4" stroke-width="0.5" stroke-miterlimit="10" width="88" height="46"/>
	<g>
		<rect x="63" y="70.555" fill="none" width="74" height="51"/>
		<text transform="matrix(1.1 0 0 1.25 63 95.2271)" fill="#153AAF" font-family="'LucidaSansTypewriterOT-Bold'" font-size="32px">SEP</text>
	</g>
</g>
<rect x="648" y="60.5" transform="matrix(0.9963 -0.0864 0.0864 0.9963 -4.5051 59.9401)" fill="#153AAF" width="84" height="43"/>
<rect x="648" y="60.5" transform="matrix(0.9998 0.0209 -0.0209 0.9998 1.862 -14.3851)" fill="#E7C93F" width="84" height="43"/>
<g>
	<path d="M669.54,89.143l5.193-5.378c2.404-2.496,3.244-3.45,3.278-5.129c0.033-1.548-0.499-2.268-2.619-2.312
		c-1.512-0.031-3.286,0.483-4.244,1.119l-1.424-3.206c1.681-1.041,3.141-1.562,6.079-1.501c3.716,0.078,5.573,1.639,5.491,5.575
		c-0.062,2.965-1.255,4.726-3.808,7.35l-3.284,3.396l7.032,0.146l-0.071,3.412l-11.691-0.244L669.54,89.143z"/>
	<path d="M684.825,82.93c0.138-6.56,2.037-9.985,7.032-9.881c4.912,0.103,6.708,3.605,6.571,10.165
		c-0.137,6.533-2.077,9.984-6.99,9.882C686.443,92.992,684.69,89.464,684.825,82.93z M695.028,83.144
		c0.086-4.12-0.541-6.286-3.249-6.342c-2.729-0.057-3.467,2.081-3.553,6.2c-0.085,4.093,0.559,6.469,3.286,6.526
		C694.221,89.584,694.942,87.237,695.028,83.144z"/>
	<path d="M704.153,77.301l-2.643-0.055l0.077-3.7l5.877,0.123l-0.405,19.443l-3.233-0.067L704.153,77.301z"/>
	<g>
		<path d="M712.932,92.588v-2.82c0.983,0.658,1.879,0.987,2.69,0.987c0.795,0,1.435-0.308,1.919-0.923
			c0.484-0.615,0.726-1.427,0.726-2.435c0-1.213-0.358-2.191-1.075-2.935c-0.717-0.743-1.949-1.115-3.697-1.115h-0.281v-9.511h8.629
			v3.153h-6.208l-0.485,3.896c2.37,0.256,4.086,0.991,5.147,2.204c1.061,1.214,1.591,2.598,1.591,4.153
			c0,1.632-0.539,3.046-1.619,4.242c-1.079,1.197-2.464,1.794-4.156,1.794C715.232,93.28,714.172,93.049,712.932,92.588z"/>
	</g>
</g>
<g>
	<path d="M656.433,74.798c0.057-2.698,1.579-3.786,4.097-3.733c1.499,0.031,2.34,0.439,3.044,1.213l-1.459,1.399
		c-0.4-0.429-0.824-0.697-1.634-0.714c-1.41-0.03-1.934,0.64-1.96,1.909c-0.024,1.199,0.34,1.946,1.888,1.978
		c0.89,0.019,1.295-0.262,1.774-0.692l1.331,1.358c-0.644,0.656-1.475,1.218-3.273,1.181
		C657.323,78.635,656.382,77.216,656.433,74.798z"/>
	<path d="M659.058,80.706l2.11,0.044l2.831,7.517l-2.148-0.044l-0.35-0.967l-3.157-0.066l-0.39,0.952l-2.019-0.042L659.058,80.706z
		 M660.877,85.543l-0.869-2.377l-0.97,2.338L660.877,85.543z"/>
</g>
<path fill="#C13726" d="M224.362,57.04c6.645-4.003,4.866,3.266,4.866,3.266c-3.38,9.295-14.658,19.596-14.658,19.596
	s-2.597,3.768-0.779,6.784c0,0,3.377,4.522,7.534-1.256l11.177-17.838c0,0,6.758-9.546,1.559-16.582c0,0-4.093-5.902-14.813,0.063
	c0,0-38.077,22.672-44.043,56.088c0,0-2.607,11.806,4.279,19.846c0,0,5.588,7.535,18.062,2.761c0,0,12.209-4.017,34.819-30.523
	c0,0,3.118-3.645,1.696-6.157c0,0-2.339-3.21-5.847,1.382c0,0-14.423,16.833-29.236,26.128c0,0-9.094,5.529-12.864-1.506
	c0,0-2.214-4.022,0.774-12.438C186.888,106.656,198.713,72.489,224.362,57.04z"/>
<path fill="#F9F9F9" d="M40.188,352.757c0,0,1.271-73.465-1.122-191.524C39.216,158.534,28.184,355.366,40.188,352.757z"/>
<path fill="#C13726" d="M228.02,124.181c0,0,2.924,7.16,13.254,2.072c0,0,9.55-4.71,17.931-15.074c0,0-1.364,11.872,4.873,13.002
	c0,0,7.407,1.319,17.346-9.798c0,0,0,10.364,7.796,11.306c0,0,7.601,2.391,16.567-6.972l14.813-15.639c0,0,5.651-0.754,2.144,9.045
	c0,0-3.941,12.624,1.148,14.32c0,0,4.31,2.45,11.327-4.899l10.525-9.044c0,0,2.534-3.015,4.093-0.754l-14.423,36.366
	c0,0-2.729,6.784,1.559,7.725c0,0,4.154,1.318,11.301-4.46c0,0,18.678-14.426,19.068-25.354c0,0,0.816-5.985-3.277-9.188
	l14.222-10.802c0,0,2.86-2.512,4.419-1.884c0,0-2.211,10.926,3.377,16.077c0,0,6.238,5.151,14.164,1.257
	c0,0,10.133-4.272,14.552-15.702l14.688-12.186c0,0,2.339-2.387,3.25,1.003c0,0,0.779,2.891-2.86,7.161c0,0-5.847,7.915-0.39,16.33
	c0,0,4.809,5.528,10.915,1.131l19.621-17.21c0,0,3.246-3.013,3.637,1.383c0,0,0.52,4.395-4.026,7.285c0,0-5.588,2.638-1.821,7.285
	c0,0,2.977,4.004,8.692-1.65l20.544-17.944c0,0,4.486-4.05,5.589,1.759c0,0,0.398,3.331,0.282,9.036c0,0-1.093,11.062,9.978,8.801
	c0,0,5.198-0.881,11.305-7.914l11.566-11.808c0,0,2.018-2.983,3.87-0.533c0,0,1.658,1.507,1.247,13.112
	c0,0,0.313,13.551,9.695,12.921c0,0,6.339-0.709,2.44-4.007c0,0-6.268-3.09-5.488-13.736c0,0,1.072-13.377-2.241-17.052
	c0,0-2.34-2.827-6.433,0.377c0,0-7.893,5.371-19.394,18.843c0,0-3.605,4.145-5.846,4.051c0,0-2.925,0.565-2.925-2.638
	c0,0,1.463-17.711-2.729-19.502c0,0-4.288-2.281-11.498,2.45c0,0-9.94,6.877-13.547,10.74c0,0,2.437-8.009-2.339-12.436
	c0,0-2.825-2.073-9.257,3.675l-18.81,17.052c0,0-5.652,4.71-8.282,0.754c0,0-1.658-1.79,1.168-5.935l6.725-9.703
	c0,0,3.022-3.957-1.656-10.364c0,0-3.704-6.218-9.259-1.508l-16.372,14.227c0,0,0.779-12.53-12.863-12.907
	c0,0-10.038,0-17.347,10.553c0,0-2.34-0.095-5.653,2.826l-14.033,10.175c0,0-2.826,1.978-4.581,0.471c0,0-2.726-4.618,1.952-10.772
	c0,0,14.162-15.703,17.539-31.717c0,0,3.38-14.759-2.078-18.151c0,0-6.811-1.543-20.348,41.926l-21.725,22.005
	c0,0-5.588,5.402-4.809,1.256c0,0,2.601-12.437,1.431-19.345c0,0-0.91-4.777-5.588-3.143c0,0-3.505,0.629-8.445,6.281
	l-16.762,17.461c0,0-7.017,6.782-10.915,1.256c0,0-2.467-6.281,0.779-9.421c0,0,19.233-12.811,31.572-46.603
	c0,0,4.291-14.32-2.725-10.174c0,0-24.559,16.078-37.681,53.763c0,0-13.117,16.208-14.813,9.547c0,0-2.464-6.905,3.383-13.438
	c0,0,5.062-4.898-0.006-6.405c0,0-2.99-1.13-6.757,4.019c0,0-2.33-7.412-12.215-3.264C252.152,95.223,221.557,107.29,228.02,124.181
	z"/>
<path fill="#EFEFEF" d="M253.667,102.731c0,0-16.839,8.192-15.539,15.605c0,0,0.911,2.762,5.588-0.629
	C243.716,117.707,261.073,101.977,253.667,102.731z"/>
<path fill="#EFEFEF" d="M400.388,95.981c0,0-12.215,7.663-8.686,18.515c0,0,2.19,5.227,8.296,0.077c0,0,8.055-6.405,6.365-15.577
	C406.363,98.996,405.583,93.469,400.388,95.981z"/>
<path fill="#C13726" d="M567.078,110.301c-10.524,12.939-19.161,4.29-19.161,4.29c-6.435-6.928,5.391-18.735,5.391-18.735
	s16.238-16.581,30.923-10.301c0,0,4.939-2.424,6.758-0.376c0,0,2.599,2.384-1.559,7.787c0,0-7.666,12.686,0.778,21.48
	c0,0,7.794,8.29,24.301,5.026c0,0,19.223-5.53,25.462-1.132c0,0,5.72,4.147-0.776,5.779c0,0-31.836,7.158-46.388,0.879
	c0,0-16.628-5.275-12.602-25.625C580.204,99.373,574.278,101.449,567.078,110.301z"/>
<path fill="#C13726" d="M542.508,60.303c0,0-3.581,4.156,0,8.89c0,0,3.344,3.81,6.686-2.885c0,0,1.918-3.582-1.188-6.005
	C548.006,60.303,544.54,57.993,542.508,60.303z"/>
<path fill="#C13726" d="M333.232,69.619c0,0-2.11,3.998,1.526,7.14c0,0,3.246,2.011,5.458-4.019c0,0,1.168-2.639-1.301-4.272
	C338.915,68.468,335.055,66.228,333.232,69.619z"/>
<path fill="#EFEFEF" d="M575.281,93.221c0,0-5.331-3.518-17.674,8.435c0,0-3.897,4.001-0.793,5.464c0,0,3.78,1.802,8.821-3.849
	c0,0,4.821-5.1,9.646-7.537C575.281,95.734,577.877,95.106,575.281,93.221z"/>
<path fill="#EFEFEF" d="M363.25,86.75c0,0,16.214-15.859,12.464-28.609C375.714,58.141,370,65.5,363.25,86.75z"/>
<path fill="#EFEFEF" d="M352.796,120.629l-10.463,24.038c0,0-3.583,8.583,5.417-0.417
	C347.75,144.25,367.218,127.244,352.796,120.629z"/>
<path fill="#EFEFEF" d="M291,98.667c0,0,6-18.167,25.333-38c0,0,2.982-2.421-0.935,5.852C315.397,66.519,304.21,86.75,291,98.667z"
	/>
</svg>
