<?xml version="1.0" encoding="utf-8"?>
<!-- Generator: Adobe Illustrator 16.0.0, SVG Export Plug-In . SVG Version: 6.00 Build 0)  -->
<!DOCTYPE svg PUBLIC "-//W3C//DTD SVG 1.1//EN" "http://www.w3.org/Graphics/SVG/1.1/DTD/svg11.dtd">
<svg version="1.1" id="Layer_1" xmlns="http://www.w3.org/2000/svg" xmlns:xlink="http://www.w3.org/1999/xlink" x="0px" y="0px"
	 width="800px" height="400px" viewBox="0 0 800 400" enable-background="new 0 0 800 400" xml:space="preserve">
<g>
	
		<image overflow="visible" opacity="0.2" width="755" height="369" xlink:href="D617103D393174A8.png"  transform="matrix(1 0 0 1 19 21)">
	</image>
	<g>
		<path fill="#E2E2E2" d="M767,46c0-13.255-10.745-24-24-24H43c-13.255,0-24,10.745-24,24v314c0,13.255,10.745,24,24,24h700
			c13.255,0,24-10.745,24-24V46z"/>
	</g>
</g>
<g>
	
		<image overflow="visible" opacity="0.2" width="723" height="334" xlink:href="D617103D393174AB.png"  transform="matrix(1 0 0 1 32 36)">
	</image>
	<g>
		<linearGradient id="SVGID_1_" gradientUnits="userSpaceOnUse" x1="393.0005" y1="364" x2="393.0005" y2="43.0005">
			<stop  offset="0" style="stop-color:#FFF7CE"/>
			<stop  offset="0.2302" style="stop-color:#FFF4BC"/>
			<stop  offset="0.6914" style="stop-color:#FFEE8C"/>
			<stop  offset="1" style="stop-color:#FFE969"/>
		</linearGradient>
		<path fill="url(#SVGID_1_)" d="M748,63c0-11.046-8.954-20-20-20H58c-11.046,0-20,8.954-20,20v281c0,11.046,8.954,20,20,20h670
			c11.046,0,20-8.954,20-20V63z"/>
	</g>
</g>
<path fill="#F9F9F9" d="M42,65.334c3.531-20.05,16-22.666,16-22.666C38.104,42.659,38,62,38,62s-2.369,14.698,0,52.5
	C38,114.5,39.666,78.584,42,65.334z"/>
<path fill="#F9F9F9" d="M39.758,355.131c0,0,1.702-75.839-0.691-193.898C39.216,158.533,27.752,357.74,39.758,355.131z"/>
<path fill="#FFFFFF" stroke="#848484" stroke-miterlimit="10" d="M171.5,57.5c0,3.866-3.134,7-7,7h-9c-3.866,0-7-3.134-7-7l0,0
	c0-3.866,3.134-7,7-7h9C168.366,50.5,171.5,53.634,171.5,57.5L171.5,57.5z"/>
<path fill="#FFFFFF" stroke="#848484" stroke-miterlimit="10" d="M631.5,57.5c0,3.866-3.134,7-7,7h-9c-3.866,0-7-3.134-7-7l0,0
	c0-3.866,3.134-7,7-7h9C628.366,50.5,631.5,53.634,631.5,57.5L631.5,57.5z"/>
<path fill="#FFFFFF" stroke="#848484" stroke-miterlimit="10" d="M171.5,350.5c0,3.866-3.134,7-7,7h-9c-3.866,0-7-3.134-7-7l0,0
	c0-3.866,3.134-7,7-7h9C168.366,343.5,171.5,346.634,171.5,350.5L171.5,350.5z"/>
<path fill="#FFFFFF" stroke="#848484" stroke-miterlimit="10" d="M631.5,350.5c0,3.866-3.134,7-7,7h-9c-3.866,0-7-3.134-7-7l0,0
	c0-3.866,3.134-7,7-7h9C628.366,343.5,631.5,346.634,631.5,350.5L631.5,350.5z"/>
<g>
	<path d="M204.925,100.977v-3.035c3.232-0.12,5.128-0.312,5.684-0.578c0.371-0.192,0.649-0.506,0.835-0.939
		c0.291-0.578,0.473-2.613,0.544-6.106c0.141-5.781,0.211-10.141,0.211-13.08l-0.078-15.284c0-4.047-0.146-6.383-0.436-7.01
		c-0.158-0.361-0.408-0.626-0.751-0.795c-0.527-0.289-2.53-0.565-6.009-0.831v-3.035c4.143,0.121,7.21,0.181,9.203,0.181
		c2.202,0,4.705-0.06,7.511-0.181c6.119,7.098,13.037,14.799,20.753,23.104c5.135,5.553,9.564,10.14,13.289,13.761V72.804
		c0-5.433-0.066-10.117-0.198-14.054c-0.106-2.342-0.318-3.778-0.636-4.31c-0.159-0.29-0.451-0.495-0.875-0.616
		s-2.279-0.289-5.564-0.507v-3.035c2.882,0.121,5.752,0.181,8.607,0.181c3.913,0,7.456-0.06,10.63-0.181v3.035
		c-2.951,0.169-4.729,0.361-5.335,0.578c-0.343,0.121-0.619,0.289-0.83,0.506s-0.369,0.494-0.475,0.831
		c-0.185,0.578-0.293,2.434-0.326,5.564L260.53,75.25l-0.08,14.562c0,3.902,0.093,7.805,0.278,11.707l-0.52,0.506
		c-3.222-0.53-5.497-0.88-6.828-1.048c-6.812-6.859-15.04-15.477-24.686-25.851c-4.877-5.247-8.812-9.664-11.807-13.251v14.044
		c0,3.827,0.065,8.436,0.198,13.827c0.08,3.971,0.265,6.258,0.557,6.859c0.105,0.265,0.305,0.47,0.597,0.614
		c0.503,0.265,2.411,0.505,5.724,0.722v3.035c-4.275-0.169-7.336-0.253-9.183-0.253C213.25,100.724,209.965,100.808,204.925,100.977
		z"/>
	<path d="M296.562,93.996l1.043,1.051l-1.619,3.458c-1.735,1.077-3.597,1.885-5.584,2.423c-1.988,0.538-4.103,0.808-6.343,0.808
		c-5.253,0-9.391-1.525-12.414-4.575c-3.024-3.05-4.536-7.336-4.536-12.858c0-3.496,0.445-6.39,1.337-8.681
		c0.723-1.856,1.909-3.399,3.56-4.629c1.649-1.229,3.553-2.399,5.709-3.509c2.155-1.109,4.521-1.664,7.1-1.664
		c3.95,0,7.214,1.104,9.792,3.313c2.577,2.209,3.866,5.764,3.866,10.664c0,0.604-0.049,1.521-0.145,2.752l-5.916,1.084
		c-1.828,0.121-4.473,0.181-7.936,0.181h-7.828c0.361,4.155,1.602,7.284,3.723,9.386c2.12,2.102,4.818,3.152,8.096,3.152
		c1.373,0,2.734-0.199,4.083-0.598C293.899,95.355,295.236,94.77,296.562,93.996z M276.432,79.983
		c2.168,0.193,4.336,0.289,6.504,0.289c1.902,0,3.902-0.096,5.998-0.289l0.036-1.704c0-2.974-0.542-5.143-1.626-6.509
		c-1.084-1.365-2.554-2.049-4.408-2.049c-1.301,0-2.421,0.32-3.36,0.961s-1.639,1.541-2.096,2.701
		C277.021,74.545,276.672,76.744,276.432,79.983z"/>
	<path d="M299.73,69.577v-2.963c2.986,0.169,6.769,0.253,11.346,0.253c3.324,0,6.299-0.084,8.925-0.253v2.963l-2.349,0.108
		c-1.253,0.024-2.041,0.145-2.367,0.361c-0.324,0.217-0.487,0.555-0.487,1.012c0,0.266,0.421,2.072,1.265,5.42l3.541,13.044
		l7.227-15.959c1.662-3.667,2.794-6.309,3.396-7.925h3.83c1.638,4.512,5.046,12.473,10.226,23.884l3.216-9.647
		c1.613-4.89,2.421-7.769,2.421-8.636c0-0.554-0.229-0.951-0.687-1.192c-0.338-0.168-1.843-0.325-4.517-0.47v-2.963
		c3.42,0.121,6.082,0.181,7.985,0.181c2.071,0,4.42-0.06,7.046-0.181v2.963c-1.879,0.072-3.035,0.229-3.469,0.47
		c-0.313,0.193-0.603,0.53-0.867,1.012c-0.699,1.229-2.325,5.505-4.878,12.827c-1.831,5.3-3.662,10.997-5.492,17.091h-5.926
		c-2.698-6.876-5.986-14.464-9.864-22.764c-4.191,8.565-7.576,16.153-10.153,22.764h-5.962c-1.036-4.384-2.626-10.292-4.77-17.724
		c-2.145-7.431-3.396-11.495-3.758-12.194c-0.217-0.409-0.47-0.698-0.759-0.867C303.392,69.927,302.019,69.722,299.73,69.577z"/>
	<path d="M381.69,53.317v-3.035c5.291,0.169,9.552,0.253,12.779,0.253c4.683,0,9.419-0.084,14.208-0.253v3.035
		c-0.848,0-2.371,0.108-4.57,0.325c-0.901,0.097-1.504,0.253-1.809,0.47s-0.511,0.519-0.616,0.903
		c-0.238,0.723-0.371,3.373-0.397,7.949l-0.079,14.67l-0.119,11.057c-0.054,5.975-0.159,9.552-0.317,10.731
		c-0.424,2.963-1.567,5.696-3.432,8.202c-1.865,2.505-4.478,4.745-7.836,6.721c-2.539,1.469-4.999,2.204-7.379,2.204
		c-0.794,0-1.76-0.156-2.896-0.468c0.133-1.654,0.198-2.769,0.198-3.344c0-0.6-0.065-1.678-0.198-3.236l0.953-0.396
		c1.67,1.662,3.564,2.493,5.685,2.493c1.06,0,1.868-0.271,2.424-0.813c0.557-0.541,0.914-2.065,1.073-4.57
		c0.265-3.879,0.397-8.731,0.397-14.562L389.68,63.76c0-4.77-0.119-7.611-0.357-8.527c-0.159-0.578-0.472-0.981-0.935-1.21
		C387.924,53.793,385.691,53.559,381.69,53.317z"/>
	<path d="M437.021,93.996l1.043,1.051l-1.619,3.458c-1.735,1.077-3.597,1.885-5.584,2.423c-1.988,0.538-4.103,0.808-6.343,0.808
		c-5.253,0-9.391-1.525-12.414-4.575c-3.024-3.05-4.536-7.336-4.536-12.858c0-3.496,0.445-6.39,1.337-8.681
		c0.723-1.856,1.909-3.399,3.56-4.629c1.649-1.229,3.553-2.399,5.709-3.509c2.155-1.109,4.521-1.664,7.1-1.664
		c3.95,0,7.214,1.104,9.792,3.313c2.577,2.209,3.866,5.764,3.866,10.664c0,0.604-0.049,1.521-0.145,2.752l-5.916,1.084
		c-1.828,0.121-4.473,0.181-7.936,0.181h-7.828c0.361,4.155,1.602,7.284,3.723,9.386c2.12,2.102,4.818,3.152,8.096,3.152
		c1.373,0,2.734-0.199,4.083-0.598C434.358,95.355,435.695,94.77,437.021,93.996z M416.891,79.983
		c2.168,0.193,4.336,0.289,6.504,0.289c1.902,0,3.902-0.096,5.998-0.289l0.036-1.704c0-2.974-0.542-5.143-1.626-6.509
		c-1.084-1.365-2.554-2.049-4.408-2.049c-1.301,0-2.421,0.32-3.36,0.961s-1.639,1.541-2.096,2.701
		C417.48,74.545,417.131,76.744,416.891,79.983z"/>
	<path d="M442.509,100.977v-2.963c2.433-0.12,3.83-0.265,4.191-0.435c0.289-0.145,0.518-0.373,0.687-0.688
		c0.265-0.578,0.421-1.856,0.47-3.835c0.096-3.521,0.145-6.729,0.145-9.624c0-5.572-0.072-8.877-0.217-9.915
		c-0.072-0.603-0.289-1.03-0.65-1.284c-0.361-0.253-1.903-0.428-4.625-0.524v-2.782c4.854-0.463,8.326-1.035,10.416-1.718
		l3.713-1.39c0.337,0,0.505,0.229,0.505,0.687l-0.028,0.506c-0.078,1.518-0.116,3.698-0.116,6.54c1.229-1.18,2.589-2.674,4.083-4.48
		c1.107-1.349,2.071-2.228,2.891-2.638c0.818-0.409,1.915-0.614,3.288-0.614c0.771,0,1.554,0.133,2.349,0.398
		c-0.217,2.41-0.361,5.688-0.434,9.835l-1.626,0.578c-0.555-0.942-1.162-1.601-1.824-1.976c-0.663-0.374-1.524-0.562-2.584-0.562
		c-1.445,0-2.687,0.375-3.722,1.123c-1.036,0.75-1.698,1.607-1.987,2.574c-0.193,0.725-0.289,3.188-0.289,7.393
		c0,6.113,0.084,9.677,0.253,10.692c0.096,0.676,0.325,1.135,0.687,1.377c0.554,0.362,2.372,0.616,5.456,0.761v2.963l-4.047-0.108
		c-2.578-0.072-4.806-0.108-6.685-0.108c-1.783,0-3.854,0.036-6.215,0.108L442.509,100.977z"/>
	<path d="M476.434,89.27c0.108,3.107,0.249,4.842,0.422,5.203c0.476,0.988,1.368,1.855,2.677,2.602
		c1.309,0.747,2.828,1.12,4.559,1.12c2.119,0,3.703-0.485,4.753-1.457c1.049-0.972,1.573-2.26,1.573-3.863
		c0-1.384-0.379-2.478-1.138-3.279c-0.76-0.795-2.386-1.493-4.878-2.096c-3.772-0.915-6.228-1.717-7.366-2.402
		c-1.138-0.688-2.043-1.704-2.715-3.054c-0.673-1.349-1.009-2.963-1.009-4.842c0-2.216,0.498-4.179,1.494-5.89
		c0.996-1.71,2.43-3.053,4.303-4.029c1.872-0.975,4.346-1.463,7.42-1.463c3.203,0,6.18,0.578,8.93,1.734
		c-0.288,1.959-0.482,5.007-0.586,9.142h-2.568c-0.131-2.602-0.314-4.131-0.553-4.589c-0.325-0.698-0.943-1.288-1.854-1.771
		c-1.258-0.65-2.602-0.976-4.033-0.976c-1.82,0-3.235,0.45-4.243,1.351c-1.009,0.899-1.513,2.034-1.513,3.402
		c0,1.271,0.455,2.279,1.366,3.023c0.91,0.769,3.078,1.501,6.504,2.196c2.362,0.482,4,0.928,4.91,1.337
		c1.518,0.724,2.672,1.779,3.464,3.167c0.791,1.388,1.187,3.144,1.187,5.267c0,4.078-1.418,7.203-4.255,9.374
		c-2.836,2.172-6.213,3.258-10.132,3.258c-1.3,0-2.739-0.167-4.319-0.501c-1.581-0.334-3.302-0.822-5.164-1.466l-0.487-0.608
		c0.261-2.094,0.423-5.391,0.488-9.891H476.434z"/>
	<path d="M531.714,93.996l1.043,1.051l-1.619,3.458c-1.735,1.077-3.597,1.885-5.584,2.423c-1.988,0.538-4.103,0.808-6.343,0.808
		c-5.253,0-9.391-1.525-12.414-4.575c-3.024-3.05-4.536-7.336-4.536-12.858c0-3.496,0.445-6.39,1.337-8.681
		c0.723-1.856,1.909-3.399,3.56-4.629c1.649-1.229,3.553-2.399,5.709-3.509c2.155-1.109,4.521-1.664,7.1-1.664
		c3.95,0,7.214,1.104,9.792,3.313c2.577,2.209,3.866,5.764,3.866,10.664c0,0.604-0.049,1.521-0.145,2.752l-5.916,1.084
		c-1.828,0.121-4.473,0.181-7.936,0.181H511.8c0.361,4.155,1.602,7.284,3.723,9.386c2.12,2.102,4.818,3.152,8.096,3.152
		c1.373,0,2.734-0.199,4.083-0.598C529.051,95.355,530.388,94.77,531.714,93.996z M511.583,79.983
		c2.168,0.193,4.336,0.289,6.504,0.289c1.902,0,3.902-0.096,5.998-0.289l0.036-1.704c0-2.974-0.542-5.143-1.626-6.509
		c-1.084-1.365-2.554-2.049-4.408-2.049c-1.301,0-2.421,0.32-3.36,0.961s-1.639,1.541-2.096,2.701
		C512.173,74.545,511.823,76.744,511.583,79.983z"/>
	<path d="M535.106,69.577v-2.963c5.54,0.145,9.081,0.217,10.623,0.217c2.144,0,5.167-0.072,9.069-0.217v2.963
		c-2.24,0.097-3.571,0.259-3.993,0.488c-0.421,0.229-0.632,0.607-0.632,1.137c0,0.723,1.18,4.057,3.541,10.002l3.938,9.965
		l3.36-7.871c3.011-7.053,4.517-11.121,4.517-12.204c0-0.506-0.211-0.86-0.633-1.065c-0.421-0.204-1.716-0.354-3.884-0.451v-2.963
		l2.276,0.093c2.433,0.083,4.047,0.124,4.842,0.124c0.867,0,3.131-0.072,6.793-0.217v2.963c-1.181,0-2.145,0.181-2.891,0.541
		c-0.313,0.169-0.591,0.434-0.831,0.795c-0.386,0.529-1.903,3.852-4.553,9.966L559.93,96.26l-6.251,14.227
		c-1.422,2.912-2.691,4.952-3.812,6.12c-1.119,1.167-2.343,2.034-3.667,2.6c-1.325,0.565-2.807,0.849-4.444,0.849
		c-1.639,0-3.373-0.408-5.203-1.224c0.578-2.374,0.999-4.689,1.265-6.943l0.976-0.324c1.421,1.565,3.071,2.349,4.95,2.349
		c1.59,0,2.902-0.518,3.938-1.553c1.035-1.035,2.649-4.031,4.842-8.989l-8.058-20.435l-4.444-10.976
		c-0.386-0.89-0.801-1.474-1.246-1.75C538.328,69.933,537.105,69.722,535.106,69.577z"/>
</g>
<g>
	<path d="M269.8,333.641v18.404h-2.874l-1.978-4.852c-2.092,3.604-5.335,5.405-9.729,5.405c-4.904,0-8.565-1.863-10.981-5.59
		c-2.418-3.727-3.626-8.042-3.626-12.946c0-5.186,1.349-9.575,4.048-13.17c2.697-3.595,6.473-5.393,11.324-5.393
		c3.621,0,6.601,1.051,8.938,3.15c2.338,2.102,3.814,4.716,4.43,7.845l-5.643,1.002c-1.055-4.395-3.577-6.592-7.567-6.592
		c-2.549,0-4.627,1.037-6.236,3.111c-1.607,2.074-2.412,5.265-2.412,9.571c0,9.088,2.848,13.632,8.543,13.632
		c2.215,0,4.047-0.765,5.498-2.294c1.449-1.529,2.175-3.551,2.175-6.064h-7.436v-5.221H269.8z"/>
	<path d="M299.595,352.045h-5.722c-0.51-1.617-0.817-3.41-0.923-5.379c-1.6,3.955-4.605,5.933-9.018,5.933
		c-2.654,0-4.786-0.778-6.394-2.333c-1.609-1.557-2.413-3.512-2.413-5.867c0-6.117,5.37-9.176,16.11-9.176
		c0.422,0,0.993,0.009,1.714,0.026v-2.004c0-2.76-1.881-4.14-5.643-4.14c-3.656,0-5.73,1.38-6.223,4.14l-5.115-0.765
		c0.281-2.215,1.424-4.038,3.428-5.471s4.904-2.149,8.701-2.149c2.057,0,3.735,0.171,5.036,0.515
		c1.301,0.342,2.399,0.922,3.296,1.74c0.896,0.816,1.517,1.705,1.858,2.662c0.344,0.959,0.515,2.58,0.515,4.865v12.023
		C298.804,348.406,299.067,350.199,299.595,352.045z M292.95,338.492c-7.77,0-11.654,1.854-11.654,5.563
		c0,1.107,0.391,2.053,1.173,2.835s1.965,1.173,3.547,1.173c2.285,0,4.012-0.726,5.182-2.175c1.168-1.451,1.753-3.099,1.753-4.944
		V338.492z"/>
	<path d="M311.744,352.045h-6.012v-26.631h5.432v6.354c0.773-2.479,1.837-4.289,3.19-5.432s2.742-1.714,4.166-1.714
		c0.193,0,0.457,0.009,0.791,0.026v6.46c-3.059,0-5.085,0.976-6.078,2.927s-1.489,3.841-1.489,5.669V352.045z"/>
	<path d="M345.521,352.045h-5.616v-5.379c-1.547,3.955-4.166,5.933-7.857,5.933c-3.27,0-5.774-1.362-7.515-4.087
		s-2.61-6.108-2.61-10.151c0-3.762,0.905-7.04,2.716-9.835s4.386-4.192,7.726-4.192c3.428,0,5.81,1.564,7.146,4.693v-12.973h6.012
		V352.045z M339.509,336.33c0-2.162-0.515-3.845-1.542-5.049c-1.029-1.204-2.36-1.807-3.995-1.807c-1.775,0-3.164,0.773-4.166,2.32
		s-1.503,3.858-1.503,6.935c0,5.941,1.863,8.912,5.59,8.912c1.477,0,2.781-0.637,3.916-1.911c1.133-1.274,1.7-2.905,1.7-4.892
		V336.33z"/>
	<path d="M369.106,343.555l5.432,0.738c-0.703,2.408-2.074,4.395-4.113,5.959s-4.597,2.347-7.673,2.347
		c-3.691,0-6.662-1.239-8.912-3.718s-3.375-5.836-3.375-10.072c0-4.025,1.134-7.356,3.401-9.993s5.344-3.955,9.229-3.955
		c3.797,0,6.732,1.301,8.807,3.902s3.111,5.941,3.111,10.02l-0.026,0.686h-18.272c0,1.811,0.171,3.261,0.515,4.351
		c0.342,1.09,1.023,2.039,2.043,2.848s2.294,1.213,3.823,1.213C366.065,347.879,368.069,346.438,369.106,343.555z M368.737,335.592
		c-0.018-1.916-0.593-3.48-1.728-4.693c-1.133-1.213-2.535-1.819-4.205-1.819c-1.652,0-3.032,0.567-4.14,1.7
		c-1.107,1.135-1.758,2.738-1.951,4.812H368.737z"/>
	<path d="M402,352.045h-6.012v-16.638c0-1.758-0.404-3.08-1.213-3.968s-1.784-1.332-2.927-1.332c-1.564,0-2.936,0.686-4.113,2.057
		s-1.767,3.437-1.767,6.196v13.685h-6.012v-26.631h5.484v6.17c1.916-4.482,4.605-6.724,8.068-6.724c2.338,0,4.337,0.738,5.999,2.215
		c1.66,1.477,2.491,4.069,2.491,7.778V352.045z"/>
	<path d="M419.271,343.37l6.302-1.345c0.756,3.568,3.656,5.353,8.701,5.353c2.303,0,4.074-0.457,5.312-1.371
		c1.24-0.914,1.859-2.048,1.859-3.401c0-0.984-0.281-1.894-0.844-2.729s-1.767-1.49-3.612-1.965l-6.882-1.793
		c-2.355-0.615-4.096-1.313-5.221-2.096s-2.026-1.886-2.703-3.31s-1.015-2.944-1.015-4.562c0-3.217,1.195-5.796,3.586-7.738
		s5.449-2.914,9.176-2.914c3.094,0,5.857,0.677,8.292,2.03s3.986,3.27,4.654,5.748l-6.17,1.529
		c-0.949-2.725-3.164-4.087-6.645-4.087c-2.021,0-3.564,0.422-4.627,1.266c-1.064,0.844-1.596,1.916-1.596,3.217
		c0,2.057,1.67,3.498,5.01,4.324l6.117,1.529c3.709,0.932,6.196,2.307,7.462,4.127c1.266,1.818,1.898,3.827,1.898,6.024
		c0,3.533-1.331,6.315-3.995,8.345c-2.662,2.031-6.112,3.046-10.349,3.046c-3.568,0-6.693-0.747-9.374-2.241
		S420.149,346.534,419.271,343.37z"/>
	<path d="M465.677,347.352v4.693c-1.793,0.387-3.182,0.58-4.166,0.58c-1.617,0-3.006-0.321-4.166-0.963
		c-1.16-0.641-2.009-1.52-2.544-2.637c-0.537-1.115-0.805-2.834-0.805-5.154v-13.79h-3.322v-4.667h3.665l0.554-6.935l4.931-0.448
		v7.383h5.353v4.667h-5.353v12.999c0,1.67,0.304,2.809,0.909,3.414c0.607,0.607,1.754,0.91,3.441,0.91
		C464.648,347.404,465.149,347.387,465.677,347.352z"/>
	<path d="M493.521,352.045h-5.722c-0.51-1.617-0.817-3.41-0.923-5.379c-1.6,3.955-4.605,5.933-9.018,5.933
		c-2.654,0-4.786-0.778-6.394-2.333c-1.609-1.557-2.413-3.512-2.413-5.867c0-6.117,5.37-9.176,16.11-9.176
		c0.422,0,0.993,0.009,1.714,0.026v-2.004c0-2.76-1.881-4.14-5.643-4.14c-3.656,0-5.73,1.38-6.223,4.14l-5.115-0.765
		c0.281-2.215,1.424-4.038,3.428-5.471s4.904-2.149,8.701-2.149c2.057,0,3.735,0.171,5.036,0.515
		c1.301,0.342,2.399,0.922,3.296,1.74c0.896,0.816,1.517,1.705,1.858,2.662c0.344,0.959,0.515,2.58,0.515,4.865v12.023
		C492.729,348.406,492.993,350.199,493.521,352.045z M486.876,338.492c-7.77,0-11.654,1.854-11.654,5.563
		c0,1.107,0.391,2.053,1.173,2.835s1.965,1.173,3.547,1.173c2.285,0,4.012-0.726,5.182-2.175c1.168-1.451,1.753-3.099,1.753-4.944
		V338.492z"/>
	<path d="M512.268,347.352v4.693c-1.793,0.387-3.182,0.58-4.166,0.58c-1.617,0-3.006-0.321-4.166-0.963
		c-1.16-0.641-2.009-1.52-2.544-2.637c-0.537-1.115-0.805-2.834-0.805-5.154v-13.79h-3.322v-4.667h3.665l0.554-6.935l4.931-0.448
		v7.383h5.353v4.667h-5.353v12.999c0,1.67,0.304,2.809,0.909,3.414c0.607,0.607,1.754,0.91,3.441,0.91
		C511.239,347.404,511.74,347.387,512.268,347.352z"/>
	<path d="M533.493,343.555l5.432,0.738c-0.703,2.408-2.074,4.395-4.113,5.959s-4.597,2.347-7.673,2.347
		c-3.691,0-6.662-1.239-8.912-3.718s-3.375-5.836-3.375-10.072c0-4.025,1.134-7.356,3.401-9.993s5.344-3.955,9.229-3.955
		c3.797,0,6.732,1.301,8.807,3.902s3.111,5.941,3.111,10.02l-0.026,0.686h-18.272c0,1.811,0.171,3.261,0.515,4.351
		c0.342,1.09,1.023,2.039,2.043,2.848s2.294,1.213,3.823,1.213C530.452,347.879,532.456,346.438,533.493,343.555z M533.124,335.592
		c-0.018-1.916-0.593-3.48-1.728-4.693c-1.133-1.213-2.535-1.819-4.205-1.819c-1.652,0-3.032,0.567-4.14,1.7
		c-1.107,1.135-1.758,2.738-1.951,4.812H533.124z"/>
</g>
</svg>
