<?xml version="1.0" encoding="utf-8"?>
<!-- Generator: Adobe Illustrator 16.0.0, SVG Export Plug-In . SVG Version: 6.00 Build 0)  -->
<!DOCTYPE svg PUBLIC "-//W3C//DTD SVG 1.1//EN" "http://www.w3.org/Graphics/SVG/1.1/DTD/svg11.dtd">
<svg version="1.1" id="Layer_1" xmlns="http://www.w3.org/2000/svg" xmlns:xlink="http://www.w3.org/1999/xlink" x="0px" y="0px"
	 width="800px" height="400px" viewBox="0 0 800 400" enable-background="new 0 0 800 400" xml:space="preserve">
<g>
	
		<image overflow="visible" opacity="0.2" width="755" height="369" xlink:href="3B2E120CDFDE3BAD.png"  transform="matrix(1 0 0 1 23 16)">
	</image>
	<g>
		<path fill="#E2E2E2" d="M771,41c0-13.255-10.745-24-24-24H47c-13.255,0-24,10.745-24,24v314c0,13.255,10.745,24,24,24h700
			c13.255,0,24-10.745,24-24V41z"/>
	</g>
</g>
<g>
	
		<image overflow="visible" opacity="0.2" width="723" height="334" xlink:href="3B2E120CDFDE3BB3.png"  transform="matrix(1 0 0 1 36 31)">
	</image>
	<g>
		<path fill="#EFEFEF" d="M752,58c0-11.046-8.954-20-20-20H62c-11.046,0-20,8.954-20,20v281c0,11.046,8.954,20,20,20h670
			c11.046,0,20-8.954,20-20V58z"/>
	</g>
</g>
<linearGradient id="SVGID_1_" gradientUnits="userSpaceOnUse" x1="396.9897" y1="38" x2="396.9897" y2="117">
	<stop  offset="0.2125" style="stop-color:#FFE22A"/>
	<stop  offset="0.9065" style="stop-color:#FF6A26"/>
</linearGradient>
<path fill="url(#SVGID_1_)" d="M42,116.723V57.36c0,0-1.666-19.36,25-19.36h665c0,0,20,0,20,21v58L42,116.723z"/>
<linearGradient id="SVGID_2_" gradientUnits="userSpaceOnUse" x1="397.0093" y1="65.2627" x2="397.0093" y2="359.2271">
	<stop  offset="0" style="stop-color:#6491CB"/>
	<stop  offset="0.5012" style="stop-color:#EEEEEE"/>
	<stop  offset="0.6051" style="stop-color:#EEEEEE"/>
	<stop  offset="0.6936" style="stop-color:#D4DCE7"/>
	<stop  offset="0.8818" style="stop-color:#91AFD6"/>
	<stop  offset="1" style="stop-color:#6491CB"/>
</linearGradient>
<path fill="url(#SVGID_2_)" d="M42,94.859l62.062-29.597l18.662,14.298l26.339-14.298l41.773,21.071l18.567-6.773l54.122,27.846
	l125.242-21.007L478.449,97h38.654l18.554,10.473l27.831-9.064l24.738,8.346L608.326,85h18.555h43.293l24.738,6.686l6.422-5.685
	L752,112.406v220.77c0,0,1.666,25.824-26.166,25.824H65.625c0,0-23.625,4.277-23.625-24.319V94.859z"/>
<path fill="#F9F9F9" d="M46,60.334c3.531-20.05,16-22.666,16-22.666C42.104,37.659,42,57,42,57s-2.369,14.698,0,52.5
	C42,109.5,43.666,73.584,46,60.334z"/>
<polygon fill="#EEEEEE" points="42,94.736 107.992,55.839 120.27,66.517 142.523,50.5 184.727,77.194 203.144,64.991 
	262.229,103.89 284.483,82.533 291.389,93.974 312.875,84.059 327.455,97.024 366.589,61.178 402.654,81.771 418.002,50.5 
	436.418,88.635 451.765,73.381 478.623,97.024 510.851,77.194 535.174,108.703 566.1,91.686 582.982,102.363 600.631,79.102 
	620.582,84.059 639.766,59.652 683.505,83.296 698.852,74.144 751.799,112.279 701.154,92.448 692.713,105.414 666.623,90.16 
	656.647,99.312 638.998,89.397 620.582,100.838 609.839,96.262 588.354,119.144 566.867,108.466 533.431,114.042 504.712,101.262 
	481.691,113.042 461.066,96.262 445.092,107.754 423.676,102.838 402.654,110.754 388.842,103.127 360.45,119.144 349.708,106.178 
	308.271,124.482 282.948,107.703 243.046,117.618 254.556,105.414 208.515,90.923 190.866,97.787 173.984,84.059 160.939,93.974 
	142.523,83.296 117.968,93.211 103.388,77.957 "/>
<path fill="#FFFFFF" stroke="#848484" stroke-miterlimit="10" d="M175.5,55.5c0,3.866-3.134,7-7,7h-9c-3.866,0-7-3.134-7-7l0,0
	c0-3.866,3.134-7,7-7h9C172.366,48.5,175.5,51.634,175.5,55.5L175.5,55.5z"/>
<path fill="#FFFFFF" stroke="#848484" stroke-miterlimit="10" d="M635.5,55.5c0,3.866-3.134,7-7,7h-9c-3.866,0-7-3.134-7-7l0,0
	c0-3.866,3.134-7,7-7h9C632.366,48.5,635.5,51.634,635.5,55.5L635.5,55.5z"/>
<path fill="#FFFFFF" stroke="#848484" stroke-miterlimit="10" d="M635.5,340.5c0,3.866-3.134,7-7,7h-9c-3.866,0-7-3.134-7-7l0,0
	c0-3.866,3.134-7,7-7h9C632.366,333.5,635.5,336.634,635.5,340.5L635.5,340.5z"/>
<path fill="#FFFFFF" stroke="#848484" stroke-miterlimit="10" d="M175.5,340.5c0,3.866-3.134,7-7,7h-9c-3.866,0-7-3.134-7-7l0,0
	c0-3.866,3.134-7,7-7h9C172.366,333.5,175.5,336.634,175.5,340.5L175.5,340.5z"/>
<rect x="652" y="55.501" transform="matrix(0.9963 -0.0864 0.0864 0.9963 -4.058 60.2677)" fill="#3A8039" width="84" height="42.999"/>
<rect x="652" y="55.5" transform="matrix(0.9998 0.0209 -0.0209 0.9998 1.758 -14.4658)" fill="#E8A91C" width="84" height="43.001"/>
<g>
	<path d="M677.218,77.93c0.138-6.56,2.037-9.984,7.032-9.881c4.912,0.104,6.708,3.605,6.571,10.166
		c-0.137,6.533-2.077,9.984-6.99,9.881C678.836,87.992,677.082,84.464,677.218,77.93z M687.421,78.144
		c0.086-4.12-0.541-6.286-3.249-6.343c-2.729-0.057-3.467,2.081-3.553,6.201c-0.085,4.093,0.559,6.469,3.286,6.525
		C686.613,84.584,687.335,82.236,687.421,78.144z"/>
	<g>
		<path d="M695.953,85.219c0.564,0.096,1.136,0.102,2.039,0.069c1.445-0.029,2.914-0.446,4.048-1.246
			c1.322-0.937,2.283-2.35,2.759-4.152l-0.058-0.034c-1.059,1.046-2.476,1.587-4.362,1.467c-3.383-0.215-5.741-2.83-5.514-6.423
			c0.236-3.712,3.316-6.764,7.479-6.499c4.52,0.288,6.719,4.006,6.418,8.734c-0.265,4.162-1.83,7.039-3.958,8.826
			c-1.808,1.479-4.2,2.229-6.815,2.242c-0.845,0.037-1.683-0.017-2.22-0.081L695.953,85.219z M698.532,74.923
			c-0.098,2.007,0.94,3.636,2.977,3.765c1.496,0.096,2.618-0.523,3.246-1.416c0.135-0.231,0.244-0.526,0.276-1.035
			c0.197-2.632-0.646-4.969-3.041-5.122C700.134,70.997,698.683,72.558,698.532,74.923z"/>
	</g>
</g>
<path fill="#F9F9F9" d="M43.758,350.131c0,0,1.702-75.839-0.691-193.898C43.216,153.533,31.752,352.74,43.758,350.131z"/>
<g>
	<path d="M661.1,68.396h2.441l3.18,4.312v-4.312h2.178v8.152h-2.1l-3.521-4.764v4.764H661.1V68.396z"/>
	<path d="M660.615,79.396h2.398l2.014,5.379l2.002-5.379h2.355l-3.236,8.207h-2.32L660.615,79.396z"/>
</g>
<g>
	<path d="M726.053,92.926l-3.039-2.99c-1.41-1.387-1.949-1.869-2.906-1.898c-0.883-0.027-1.296,0.271-1.333,1.48
		c-0.026,0.861,0.257,1.877,0.614,2.426l-1.836,0.795c-0.584-0.965-0.873-1.799-0.822-3.475c0.065-2.119,0.966-3.17,3.209-3.102
		c1.691,0.053,2.688,0.742,4.171,2.213l1.918,1.891l0.122-4.008l1.945,0.059l-0.203,6.666L726.053,92.926z"/>
	<path d="M722.594,84.176c-3.739-0.115-5.682-1.217-5.596-4.064c0.087-2.801,2.094-3.805,5.834-3.691
		c3.725,0.113,5.682,1.24,5.596,4.041C728.341,83.309,726.318,84.289,722.594,84.176z M722.772,78.359
		c-2.349-0.072-3.587,0.273-3.635,1.816c-0.048,1.557,1.167,1.988,3.517,2.061c2.333,0.072,3.691-0.283,3.738-1.838
		C726.44,78.855,725.105,78.43,722.772,78.359z"/>
	<path d="M719.491,73.123l-0.046,1.508l-2.108-0.064l0.103-3.352l11.084,0.34l-0.057,1.842L719.491,73.123z"/>
	<g>
		<path d="M728.257,68.203l-1.608-0.016c0.381-0.559,0.574-1.066,0.578-1.529c0.004-0.453-0.168-0.82-0.516-1.1
			s-0.81-0.422-1.385-0.428c-0.691-0.006-1.252,0.193-1.68,0.598S723,66.834,722.99,67.83l-0.002,0.16l-5.422-0.053l0.047-4.92
			l1.799,0.018l-0.035,3.539l2.22,0.299c0.159-1.35,0.587-2.324,1.285-2.922c0.698-0.6,1.489-0.893,2.377-0.885
			c0.931,0.008,1.733,0.324,2.41,0.947c0.677,0.621,1.009,1.414,1,2.379C728.664,66.895,728.526,67.498,728.257,68.203z"/>
	</g>
</g>
<g>
	<path fill="#193159" stroke="#EEEEEE" stroke-width="2" stroke-miterlimit="10" d="M286.684,42.475v2.9
		c-1.172,0.381-2,0.703-2.483,0.967s-0.894,0.615-1.23,1.055c-0.337,0.439-0.593,1.106-0.769,1.999
		c-0.176,0.895-0.264,2.264-0.264,4.109v48.955h-11.162L251,68.271c-2.666-4.629-4.629-8.262-5.889-10.898h-0.396
		c0.292,6.299,0.439,12.949,0.439,19.951v14.15c0,2.197,0.11,3.735,0.33,4.614s0.615,1.575,1.187,2.087
		c0.571,0.514,1.648,0.975,3.23,1.385v2.9h-16.611v-2.9c1.083-0.293,1.94-0.615,2.571-0.967c0.63-0.352,1.099-0.827,1.406-1.428
		s0.505-1.355,0.593-2.264s0.132-2.051,0.132-3.428V53.461c0-2.197-0.095-3.714-0.286-4.548c-0.191-0.836-0.586-1.531-1.187-2.088
		c-0.601-0.557-1.677-1.04-3.23-1.45v-2.9h17.798l15.557,27.026c0.967,1.699,2.226,3.999,3.779,6.899
		c1.553,2.9,2.929,5.64,4.131,8.218h0.703c-0.323-7.002-0.483-14.648-0.483-22.939v-8.174c0-1.904-0.073-3.281-0.22-4.131
		c-0.147-0.85-0.374-1.494-0.681-1.934s-0.718-0.806-1.23-1.099c-0.513-0.293-1.37-0.615-2.571-0.967v-2.9H286.684z"/>
	<path fill="#193159" stroke="#EEEEEE" stroke-width="2" stroke-miterlimit="10" d="M338.144,42.475v13.975h-6.021
		c-0.967-2.783-1.787-4.665-2.461-5.647c-0.674-0.98-1.479-1.758-2.417-2.328c-0.938-0.572-2.534-0.857-4.79-0.857h-9.58V68.71
		h5.801c1.289,0,2.3-0.183,3.032-0.549c0.732-0.366,1.34-0.975,1.824-1.824s0.945-2.168,1.384-3.955h4.966v17.842h-4.966
		c-0.411-1.699-0.864-2.995-1.362-3.889c-0.499-0.894-1.092-1.531-1.78-1.912c-0.688-0.381-1.721-0.571-3.098-0.571h-5.801v23.467
		h9.536c1.025,0,1.89-0.065,2.593-0.198c0.703-0.131,1.333-0.358,1.89-0.681c0.556-0.322,1.091-0.762,1.604-1.318
		c0.512-0.557,0.967-1.157,1.362-1.802s0.813-1.494,1.252-2.549s0.923-2.505,1.45-4.351h6.021l-0.835,16.04H294.55v-2.9
		c1.083-0.293,1.94-0.607,2.571-0.945c0.63-0.336,1.099-0.805,1.406-1.406c0.308-0.6,0.505-1.361,0.593-2.285
		c0.088-0.922,0.132-2.087,0.132-3.493V53.549c0-1.377-0.037-2.534-0.11-3.472c-0.073-0.938-0.264-1.699-0.571-2.285
		s-0.776-1.062-1.406-1.428c-0.63-0.366-1.501-0.696-2.615-0.989v-2.9H338.144z"/>
	<path fill="#193159" stroke="#EEEEEE" stroke-width="2" stroke-miterlimit="10" d="M383.979,56.889
		c0.439-1.23,0.784-2.388,1.033-3.472c0.249-1.084,0.374-2.227,0.374-3.428c0-1.436-0.374-2.534-1.121-3.296
		s-1.897-1.201-3.45-1.318v-2.9h18.94v2.9c-1.114,0.176-2.059,0.535-2.834,1.077c-0.776,0.542-1.479,1.318-2.109,2.328
		c-0.63,1.012-1.37,2.659-2.219,4.944l-18.413,49.043h-10.151l-14.502-49.219c-0.645-2.197-1.187-3.757-1.626-4.681
		c-0.439-0.922-1.011-1.67-1.714-2.24c-0.703-0.572-1.685-0.989-2.944-1.253v-2.9h24.302v2.9c-1.523,0.176-2.652,0.601-3.384,1.274
		c-0.732,0.674-1.099,1.626-1.099,2.856c0,0.967,0.088,1.911,0.264,2.835c0.176,0.922,0.542,2.395,1.099,4.416l8.701,31.553
		L383.979,56.889z"/>
	<path fill="#193159" stroke="#EEEEEE" stroke-width="2" stroke-miterlimit="10" d="M426.43,83.871h-18.764l-1.451,4.175
		c-0.41,1.172-0.746,2.307-1.01,3.406c-0.264,1.098-0.396,2.263-0.396,3.493c0,2.871,1.523,4.409,4.57,4.614v2.9h-18.764v-2.9
		c1.083-0.117,2.036-0.498,2.856-1.143c0.82-0.645,1.567-1.523,2.241-2.637c0.674-1.113,1.391-2.71,2.153-4.79l18.326-48.823h11.732
		l14.502,49.219c0.645,2.197,1.188,3.758,1.627,4.68c0.439,0.924,1.01,1.67,1.713,2.242c0.703,0.57,1.686,0.988,2.945,1.252v2.9
		h-24.258v-2.9c1.522-0.176,2.65-0.601,3.383-1.274s1.1-1.626,1.1-2.856c0-0.908-0.104-1.919-0.309-3.032s-0.542-2.52-1.01-4.219
		L426.43,83.871z M409.336,78.729h15.82l-7.031-24.741L409.336,78.729z"/>
	<path fill="#193159" stroke="#EEEEEE" stroke-width="2" stroke-miterlimit="10" d="M476.703,42.475
		c4.893,0,8.98,0.381,12.262,1.143c3.28,0.762,6.195,1.963,8.744,3.604s4.607,3.597,6.175,5.866c1.567,2.271,2.731,4.908,3.493,7.91
		c0.762,3.004,1.143,6.395,1.143,10.174c0,4.57-0.534,8.672-1.604,12.305c-1.07,3.633-2.674,6.738-4.812,9.316
		c-1.904,2.314-4.24,4.219-7.009,5.713s-5.954,2.549-9.558,3.164c-3.105,0.527-7.018,0.791-11.734,0.791h-19.951v-2.9
		c1.084-0.293,1.941-0.607,2.571-0.945c0.63-0.336,1.099-0.805,1.406-1.406c0.308-0.6,0.505-1.361,0.593-2.285
		c0.088-0.922,0.133-2.087,0.133-3.493V53.549c0-1.377-0.037-2.534-0.11-3.472s-0.264-1.699-0.571-2.285s-0.776-1.062-1.406-1.428
		c-0.631-0.366-1.502-0.696-2.615-0.989v-2.9H476.703z M472.178,97.143c0.527,0.088,1.859,0.132,3.998,0.132
		c3.223,0,5.934-0.469,8.131-1.406c1.641-0.703,3.031-1.67,4.174-2.9c1.904-2.021,3.34-4.644,4.307-7.866
		c1.055-3.516,1.582-7.808,1.582-12.876c0-5.566-0.746-10.188-2.24-13.865c-1.494-3.676-3.598-6.386-6.307-8.129
		c-2.71-1.743-5.955-2.615-9.734-2.615c-1.816,0-3.119,0.029-3.91,0.088V97.143z"/>
	<path fill="#193159" stroke="#EEEEEE" stroke-width="2" stroke-miterlimit="10" d="M545.17,83.871h-18.764l-1.451,4.175
		c-0.41,1.172-0.746,2.307-1.01,3.406c-0.264,1.098-0.396,2.263-0.396,3.493c0,2.871,1.523,4.409,4.57,4.614v2.9h-18.764v-2.9
		c1.083-0.117,2.035-0.498,2.855-1.143s1.567-1.523,2.242-2.637c0.674-1.113,1.391-2.71,2.152-4.79l18.326-48.823h11.732
		l14.502,49.219c0.645,2.197,1.188,3.758,1.627,4.68c0.439,0.924,1.01,1.67,1.713,2.242c0.703,0.57,1.686,0.988,2.945,1.252v2.9
		h-24.258v-2.9c1.522-0.176,2.65-0.601,3.383-1.274s1.1-1.626,1.1-2.856c0-0.908-0.104-1.919-0.309-3.032s-0.542-2.52-1.01-4.219
		L545.17,83.871z M528.076,78.729h15.82l-7.031-24.741L528.076,78.729z"/>
</g>
<polygon fill="#EEEEEE" points="156,122.465 190,108.5 213.142,116.465 238,104.027 216,124.482 195,117.246 "/>
<polygon fill="#EEEEEE" points="426.517,111.23 453.146,131.051 473.645,124.95 504.794,137.089 511.801,128.818 547.34,134.861 
	505.088,118.343 496.02,126.021 467.023,113.633 457.266,121.643 "/>
<g>
	<path fill="#EEEEEE" d="M277.487,332.57h15.85v5.098h-1.436c-0.215-0.84-0.427-1.504-0.637-1.992s-0.432-0.859-0.667-1.113
		s-0.486-0.435-0.754-0.542s-0.671-0.161-1.208-0.161h-1.86v15c0,0.576,0.032,1.035,0.095,1.377s0.161,0.613,0.293,0.813
		s0.31,0.356,0.535,0.469s0.576,0.222,1.055,0.329v0.718h-6.694v-0.718c0.293-0.068,0.552-0.142,0.776-0.22s0.408-0.173,0.549-0.285
		s0.259-0.257,0.352-0.433s0.166-0.415,0.22-0.718s0.081-0.747,0.081-1.333v-15h-1.846c-0.459,0-0.837,0.044-1.135,0.132
		s-0.574,0.271-0.828,0.549c-0.254,0.279-0.486,0.674-0.696,1.188c-0.21,0.512-0.408,1.159-0.593,1.94h-1.45V332.57z"/>
	<path fill="#EEEEEE" d="M311.413,348.903c0,0.566,0.015,0.991,0.044,1.274s0.078,0.511,0.146,0.681
		c0.068,0.172,0.151,0.311,0.249,0.418s0.237,0.205,0.417,0.293s0.461,0.181,0.842,0.278v0.718h-6.138v-0.718
		c0.537-0.137,0.913-0.288,1.128-0.454s0.364-0.42,0.447-0.762s0.125-0.918,0.125-1.729v-6.138h-8.145v6.138
		c0,0.654,0.022,1.133,0.066,1.436s0.117,0.542,0.22,0.718s0.254,0.322,0.454,0.439s0.525,0.234,0.974,0.352v0.718h-6.167v-0.718
		c0.605-0.156,1.011-0.329,1.216-0.521c0.205-0.189,0.339-0.461,0.403-0.812s0.095-0.889,0.095-1.611v-12.671
		c0-0.674-0.024-1.165-0.073-1.472c-0.049-0.309-0.129-0.547-0.242-0.719c-0.112-0.17-0.261-0.307-0.447-0.41
		c-0.186-0.102-0.503-0.217-0.952-0.344v-0.718h6.167v0.718c-0.43,0.107-0.74,0.215-0.93,0.322s-0.342,0.242-0.454,0.402
		c-0.112,0.162-0.195,0.403-0.249,0.726s-0.081,0.82-0.081,1.494v5.186h8.145v-5.186c0-0.85-0.042-1.431-0.125-1.743
		s-0.222-0.552-0.417-0.718s-0.581-0.327-1.157-0.483v-0.718h6.138v0.718c-0.547,0.137-0.928,0.291-1.143,0.461
		c-0.215,0.172-0.361,0.428-0.439,0.77s-0.117,0.913-0.117,1.714V348.903z"/>
	<path fill="#EEEEEE" d="M330.368,332.57v4.424h-1.436c-0.146-0.479-0.298-0.898-0.454-1.26s-0.317-0.664-0.483-0.908
		s-0.349-0.439-0.549-0.586s-0.437-0.246-0.71-0.3s-0.601-0.081-0.981-0.081h-4.629v7.676h3.135c0.43,0,0.767-0.061,1.011-0.183
		s0.447-0.33,0.608-0.623s0.315-0.752,0.461-1.377h1.377v5.625h-1.377c-0.137-0.586-0.288-1.027-0.454-1.326
		c-0.166-0.297-0.364-0.51-0.593-0.637s-0.574-0.19-1.033-0.19h-3.135v8.452h4.556c0.479,0,0.867-0.041,1.165-0.125
		c0.298-0.082,0.554-0.224,0.769-0.424s0.405-0.462,0.571-0.784s0.305-0.656,0.417-1.003s0.266-0.853,0.461-1.517h1.45l-0.278,5.142
		h-13.564v-0.718c0.605-0.156,1.011-0.329,1.216-0.521c0.205-0.189,0.339-0.461,0.403-0.812s0.095-0.889,0.095-1.611v-12.671
		c0-0.674-0.024-1.165-0.073-1.472c-0.049-0.309-0.129-0.547-0.242-0.719c-0.112-0.17-0.261-0.307-0.447-0.41
		c-0.186-0.102-0.503-0.217-0.952-0.344v-0.718H330.368z"/>
	<path fill="#EEEEEE" d="M341.867,348.01c0.195,0.859,0.459,1.538,0.791,2.036s0.762,0.867,1.289,1.105
		c0.527,0.24,1.206,0.359,2.036,0.359c1.143,0,2.019-0.298,2.629-0.894s0.916-1.465,0.916-2.607c0-0.732-0.127-1.348-0.381-1.846
		s-0.669-0.967-1.245-1.406s-1.455-0.952-2.637-1.538c-1.143-0.566-2.046-1.121-2.71-1.662c-0.664-0.543-1.16-1.131-1.487-1.766
		s-0.491-1.328-0.491-2.08c0-1.094,0.256-2.043,0.769-2.85c0.513-0.805,1.265-1.428,2.256-1.867s2.126-0.659,3.406-0.659
		c0.742,0,1.467,0.039,2.175,0.117s1.594,0.254,2.659,0.527v3.955h-1.45c-0.225-0.859-0.508-1.528-0.85-2.007
		s-0.742-0.812-1.201-1.004c-0.459-0.189-1.055-0.285-1.787-0.285c-0.635,0-1.204,0.117-1.707,0.352s-0.901,0.589-1.194,1.062
		s-0.439,1.037-0.439,1.691c0,0.693,0.125,1.279,0.374,1.758s0.637,0.923,1.165,1.333s1.309,0.869,2.344,1.377
		c1.25,0.625,2.219,1.206,2.908,1.743s1.226,1.15,1.611,1.838c0.386,0.689,0.579,1.492,0.579,2.41c0,1.025-0.161,1.893-0.483,2.6
		c-0.322,0.709-0.769,1.285-1.34,1.729c-0.571,0.445-1.255,0.768-2.051,0.967c-0.796,0.2-1.667,0.301-2.615,0.301
		c-1.533,0-3.301-0.259-5.303-0.776v-4.014H341.867z"/>
	<path fill="#EEEEEE" d="M359.885,348.903c0,0.654,0.022,1.133,0.066,1.436s0.117,0.542,0.22,0.718s0.254,0.322,0.454,0.439
		s0.525,0.234,0.974,0.352v0.718h-6.182v-0.718c0.605-0.156,1.011-0.329,1.216-0.521c0.205-0.189,0.339-0.461,0.403-0.812
		s0.095-0.889,0.095-1.611v-12.671c0-0.674-0.024-1.165-0.073-1.472c-0.049-0.309-0.129-0.547-0.242-0.719
		c-0.112-0.17-0.261-0.307-0.447-0.41c-0.186-0.102-0.503-0.217-0.952-0.344v-0.718h6.182v0.718c-0.43,0.107-0.74,0.215-0.93,0.322
		s-0.342,0.242-0.454,0.402c-0.112,0.162-0.195,0.403-0.249,0.726s-0.081,0.82-0.081,1.494V348.903z"/>
	<path fill="#EEEEEE" d="M369.597,351.218h3.838c0.42,0,0.771-0.024,1.055-0.073s0.525-0.124,0.725-0.228
		c0.2-0.102,0.381-0.243,0.542-0.424s0.315-0.418,0.461-0.711s0.286-0.661,0.417-1.105s0.295-1.111,0.491-2h1.479l-0.293,5.889
		h-13.169v-0.718c0.605-0.156,1.011-0.329,1.216-0.521c0.205-0.189,0.339-0.461,0.403-0.812s0.095-0.889,0.095-1.611v-12.671
		c0-0.674-0.024-1.165-0.073-1.472c-0.049-0.309-0.129-0.547-0.242-0.719c-0.112-0.17-0.261-0.307-0.447-0.41
		c-0.186-0.102-0.503-0.217-0.952-0.344v-0.718h6.167v0.718c-0.43,0.117-0.735,0.223-0.916,0.314
		c-0.181,0.094-0.33,0.218-0.447,0.374s-0.205,0.396-0.264,0.718s-0.088,0.835-0.088,1.538V351.218z"/>
	<path fill="#EEEEEE" d="M383.923,332.57v0.718c-0.449,0.078-0.791,0.176-1.025,0.293s-0.41,0.283-0.527,0.498
		s-0.176,0.503-0.176,0.864c0,0.332,0.039,0.691,0.117,1.077s0.19,0.817,0.337,1.296l3.428,11.953l4.204-12.041
		c0.059-0.186,0.117-0.381,0.176-0.586s0.11-0.405,0.154-0.601s0.073-0.366,0.088-0.513s0.022-0.283,0.022-0.41
		c0-0.586-0.134-1.013-0.403-1.282c-0.269-0.268-0.725-0.451-1.37-0.549v-0.718h6.152v0.718c-0.4,0.098-0.723,0.239-0.967,0.425
		s-0.486,0.483-0.725,0.894s-0.53,1.064-0.872,1.963l-6.079,16.23h-1.919l-4.937-16.333c-0.264-0.889-0.493-1.521-0.688-1.897
		c-0.195-0.375-0.41-0.658-0.645-0.85c-0.234-0.189-0.557-0.334-0.967-0.432v-0.718H383.923z"/>
	<path fill="#EEEEEE" d="M410.554,332.57v4.424h-1.436c-0.146-0.479-0.298-0.898-0.454-1.26s-0.317-0.664-0.483-0.908
		s-0.349-0.439-0.55-0.586c-0.199-0.146-0.437-0.246-0.71-0.3s-0.601-0.081-0.981-0.081h-4.629v7.676h3.135
		c0.43,0,0.767-0.061,1.011-0.183s0.446-0.33,0.608-0.623c0.16-0.293,0.314-0.752,0.461-1.377h1.377v5.625h-1.377
		c-0.137-0.586-0.288-1.027-0.454-1.326c-0.166-0.297-0.364-0.51-0.593-0.637c-0.23-0.127-0.574-0.19-1.033-0.19h-3.135v8.452h4.556
		c0.479,0,0.866-0.041,1.165-0.125c0.297-0.082,0.554-0.224,0.769-0.424s0.405-0.462,0.571-0.784s0.305-0.656,0.418-1.003
		c0.111-0.347,0.266-0.853,0.461-1.517h1.45l-0.278,5.142h-13.564v-0.718c0.605-0.156,1.011-0.329,1.216-0.521
		c0.205-0.189,0.339-0.461,0.403-0.812s0.095-0.889,0.095-1.611v-12.671c0-0.674-0.024-1.165-0.073-1.472
		c-0.049-0.309-0.129-0.547-0.242-0.719c-0.112-0.17-0.261-0.307-0.447-0.41c-0.186-0.102-0.503-0.217-0.952-0.344v-0.718H410.554z"
		/>
	<path fill="#EEEEEE" d="M418.581,343.879v4.98c0,0.703,0.026,1.214,0.081,1.53c0.053,0.318,0.134,0.557,0.241,0.719
		c0.107,0.16,0.254,0.293,0.439,0.395c0.186,0.104,0.503,0.218,0.952,0.345v0.718h-6.182v-0.718
		c0.605-0.156,1.011-0.329,1.216-0.521c0.205-0.189,0.339-0.461,0.403-0.812c0.062-0.352,0.095-0.889,0.095-1.611v-12.671
		c0-0.674-0.024-1.165-0.073-1.472c-0.049-0.309-0.129-0.547-0.242-0.719c-0.111-0.17-0.261-0.307-0.446-0.41
		c-0.186-0.102-0.503-0.217-0.952-0.344v-0.718h7.251c2.285,0,3.994,0.415,5.127,1.245s1.699,2.119,1.699,3.867
		c0,1.338-0.368,2.476-1.106,3.413c-0.736,0.938-1.843,1.67-3.317,2.197v0.117c0.596,0.244,1.106,0.593,1.53,1.048
		c0.426,0.453,0.896,1.159,1.414,2.116l1.318,2.402c0.381,0.703,0.708,1.24,0.981,1.611s0.552,0.654,0.835,0.85
		s0.659,0.332,1.128,0.41v0.718h-4.058c-0.371-0.518-0.723-1.074-1.055-1.67s-0.659-1.201-0.981-1.816l-1.289-2.446
		c-0.391-0.742-0.71-1.289-0.96-1.641c-0.248-0.352-0.479-0.598-0.688-0.739c-0.211-0.142-0.436-0.239-0.674-0.293
		c-0.24-0.054-0.599-0.081-1.077-0.081H418.581z M418.581,333.918v8.701h1.655c0.85,0,1.538-0.061,2.065-0.183
		s1.016-0.354,1.465-0.696s0.808-0.817,1.077-1.429c0.268-0.609,0.402-1.359,0.402-2.248c0-0.928-0.158-1.699-0.477-2.314
		c-0.316-0.615-0.798-1.084-1.442-1.406s-1.514-0.483-2.607-0.483C419.841,333.859,419.128,333.879,418.581,333.918z"/>
	<path fill="#EEEEEE" d="M440.686,348.01c0.195,0.859,0.459,1.538,0.791,2.036s0.762,0.867,1.289,1.105
		c0.527,0.24,1.206,0.359,2.036,0.359c1.143,0,2.019-0.298,2.63-0.894c0.609-0.596,0.915-1.465,0.915-2.607
		c0-0.732-0.127-1.348-0.381-1.846s-0.669-0.967-1.245-1.406s-1.455-0.952-2.637-1.538c-1.143-0.566-2.046-1.121-2.71-1.662
		c-0.664-0.543-1.159-1.131-1.487-1.766c-0.326-0.635-0.49-1.328-0.49-2.08c0-1.094,0.256-2.043,0.77-2.85
		c0.512-0.805,1.264-1.428,2.256-1.867c0.99-0.439,2.126-0.659,3.405-0.659c0.742,0,1.468,0.039,2.175,0.117
		c0.709,0.078,1.595,0.254,2.659,0.527v3.955h-1.45c-0.225-0.859-0.508-1.528-0.85-2.007s-0.742-0.812-1.201-1.004
		c-0.459-0.189-1.055-0.285-1.787-0.285c-0.635,0-1.203,0.117-1.707,0.352c-0.502,0.234-0.9,0.589-1.193,1.062
		s-0.439,1.037-0.439,1.691c0,0.693,0.125,1.279,0.373,1.758c0.25,0.479,0.638,0.923,1.165,1.333s1.309,0.869,2.344,1.377
		c1.25,0.625,2.22,1.206,2.907,1.743c0.689,0.537,1.227,1.15,1.611,1.838c0.387,0.689,0.579,1.492,0.579,2.41
		c0,1.025-0.161,1.893-0.483,2.6c-0.322,0.709-0.77,1.285-1.34,1.729c-0.572,0.445-1.256,0.768-2.051,0.967
		c-0.797,0.2-1.668,0.301-2.615,0.301c-1.533,0-3.301-0.259-5.303-0.776v-4.014H440.686z"/>
	<path fill="#EEEEEE" d="M453.063,332.57h15.85v5.098h-1.436c-0.215-0.84-0.427-1.504-0.638-1.992
		c-0.209-0.488-0.432-0.859-0.666-1.113s-0.486-0.435-0.754-0.542c-0.27-0.107-0.672-0.161-1.209-0.161h-1.86v15
		c0,0.576,0.032,1.035,0.095,1.377c0.064,0.342,0.162,0.613,0.293,0.813c0.133,0.2,0.311,0.356,0.535,0.469s0.576,0.222,1.055,0.329
		v0.718h-6.694v-0.718c0.293-0.068,0.552-0.142,0.776-0.22s0.408-0.173,0.549-0.285c0.143-0.112,0.26-0.257,0.352-0.433
		c0.094-0.176,0.166-0.415,0.221-0.718c0.053-0.303,0.08-0.747,0.08-1.333v-15h-1.846c-0.459,0-0.838,0.044-1.135,0.132
		c-0.299,0.088-0.574,0.271-0.828,0.549c-0.254,0.279-0.486,0.674-0.695,1.188c-0.211,0.512-0.408,1.159-0.594,1.94h-1.45V332.57z"
		/>
	<path fill="#EEEEEE" d="M479.167,352.565v-0.718c0.488-0.098,0.853-0.205,1.091-0.322c0.24-0.117,0.418-0.28,0.535-0.491
		c0.117-0.209,0.176-0.49,0.176-0.842c0-0.332-0.039-0.69-0.117-1.076s-0.19-0.818-0.337-1.297l-0.542-1.89h-6.826l-0.498,1.436
		c-0.254,0.723-0.42,1.27-0.498,1.641s-0.117,0.708-0.117,1.011c0,0.586,0.148,1.016,0.447,1.289
		c0.297,0.273,0.754,0.454,1.369,0.542v0.718h-6.255v-0.718c0.547-0.088,1.022-0.405,1.429-0.952
		c0.404-0.547,0.798-1.328,1.179-2.344l6.108-16.216h2.314l4.98,16.333c0.234,0.762,0.441,1.343,0.623,1.743
		c0.18,0.4,0.397,0.713,0.651,0.938s0.601,0.391,1.04,0.498v0.718H479.167z M473.542,344.655h6.123l-2.783-9.448L473.542,344.655z"
		/>
	<path fill="#EEEEEE" d="M485.407,332.57h15.85v5.098h-1.436c-0.215-0.84-0.427-1.504-0.638-1.992
		c-0.209-0.488-0.432-0.859-0.666-1.113s-0.486-0.435-0.754-0.542c-0.27-0.107-0.672-0.161-1.209-0.161h-1.86v15
		c0,0.576,0.032,1.035,0.095,1.377c0.064,0.342,0.162,0.613,0.293,0.813c0.133,0.2,0.311,0.356,0.535,0.469s0.576,0.222,1.055,0.329
		v0.718h-6.694v-0.718c0.293-0.068,0.552-0.142,0.776-0.22s0.408-0.173,0.549-0.285c0.143-0.112,0.26-0.257,0.352-0.433
		c0.094-0.176,0.166-0.415,0.221-0.718c0.053-0.303,0.08-0.747,0.08-1.333v-15h-1.846c-0.459,0-0.838,0.044-1.135,0.132
		c-0.299,0.088-0.574,0.271-0.828,0.549c-0.254,0.279-0.486,0.674-0.695,1.188c-0.211,0.512-0.408,1.159-0.594,1.94h-1.45V332.57z"
		/>
	<path fill="#EEEEEE" d="M517.692,332.57v4.424h-1.436c-0.146-0.479-0.298-0.898-0.454-1.26s-0.317-0.664-0.483-0.908
		s-0.349-0.439-0.55-0.586c-0.199-0.146-0.437-0.246-0.71-0.3s-0.601-0.081-0.981-0.081h-4.629v7.676h3.135
		c0.43,0,0.767-0.061,1.011-0.183s0.446-0.33,0.608-0.623c0.16-0.293,0.314-0.752,0.461-1.377h1.377v5.625h-1.377
		c-0.137-0.586-0.288-1.027-0.454-1.326c-0.166-0.297-0.364-0.51-0.593-0.637c-0.23-0.127-0.574-0.19-1.033-0.19h-3.135v8.452h4.556
		c0.479,0,0.866-0.041,1.165-0.125c0.297-0.082,0.554-0.224,0.769-0.424s0.405-0.462,0.571-0.784s0.305-0.656,0.418-1.003
		c0.111-0.347,0.266-0.853,0.461-1.517h1.45l-0.278,5.142h-13.564v-0.718c0.605-0.156,1.011-0.329,1.216-0.521
		c0.205-0.189,0.339-0.461,0.403-0.812c0.062-0.352,0.095-0.889,0.095-1.611v-12.671c0-0.674-0.024-1.165-0.073-1.472
		c-0.049-0.309-0.129-0.547-0.242-0.719c-0.111-0.17-0.261-0.307-0.446-0.41c-0.186-0.102-0.503-0.217-0.952-0.344v-0.718H517.692z"
		/>
</g>
</svg>
