<?xml version="1.0" encoding="utf-8"?>
<!-- Generator: Adobe Illustrator 16.0.0, SVG Export Plug-In . SVG Version: 6.00 Build 0)  -->
<!DOCTYPE svg PUBLIC "-//W3C//DTD SVG 1.1//EN" "http://www.w3.org/Graphics/SVG/1.1/DTD/svg11.dtd">
<svg version="1.1" id="Layer_1" xmlns="http://www.w3.org/2000/svg" xmlns:xlink="http://www.w3.org/1999/xlink" x="0px" y="0px"
	 width="800px" height="400px" viewBox="0 0 800 400" enable-background="new 0 0 800 400" xml:space="preserve">
<g>
	
		<image overflow="visible" opacity="0.2" width="755" height="369" xlink:href="311C7811CA096BCB.png"  transform="matrix(1 0 0 1 25 15)">
	</image>
	<g>
		<path fill="#E2E2E2" d="M773,40c0-13.255-10.745-24-24-24H49c-13.255,0-24,10.745-24,24v314c0,13.255,10.745,24,24,24h700
			c13.255,0,24-10.745,24-24V40z"/>
	</g>
</g>
<g>
	
		<image overflow="visible" opacity="0.2" width="723" height="334" xlink:href="311C7811CA096BD8.png"  transform="matrix(1 0 0 1 38 30)">
	</image>
	<g>
		<path fill="#EFEFEF" d="M754,57c0-11.046-8.954-20-20-20H64c-11.046,0-20,8.954-20,20v281c0,11.046,8.954,20,20,20h670
			c11.046,0,20-8.954,20-20V57z"/>
	</g>
</g>
<path fill="#F9F9F9" d="M48,59.334c3.532-20.05,16-22.667,16-22.667C44.104,36.659,44,56,44,56s-2.369,14.698,0,52.5
	C44,108.5,45.666,72.584,48,59.334z"/>
<rect x="654" y="54.5" transform="matrix(0.9963 -0.0864 0.0864 0.9963 -3.9641 60.4368)" fill="#153AAF" width="84" height="43"/>
<rect x="654" y="54.5" transform="matrix(0.9998 0.0209 -0.0209 0.9998 1.7381 -14.5118)" fill="#E7C93F" width="84" height="43"/>
<g>
	<path d="M675.54,83.143l5.193-5.378c2.404-2.496,3.244-3.45,3.278-5.129c0.033-1.548-0.499-2.268-2.619-2.312
		c-1.512-0.031-3.286,0.483-4.244,1.119l-1.424-3.206c1.681-1.042,3.141-1.562,6.079-1.501c3.716,0.078,5.573,1.639,5.491,5.575
		c-0.062,2.965-1.255,4.726-3.808,7.35l-3.284,3.396l7.032,0.146l-0.071,3.412l-11.691-0.244L675.54,83.143z"/>
	<path d="M690.825,76.93c0.138-6.56,2.037-9.985,7.032-9.881c4.912,0.103,6.708,3.605,6.571,10.165
		c-0.137,6.533-2.077,9.984-6.99,9.882C692.443,86.992,690.689,83.464,690.825,76.93z M701.028,77.144
		c0.086-4.12-0.541-6.286-3.249-6.342c-2.729-0.057-3.467,2.081-3.553,6.2c-0.085,4.093,0.559,6.469,3.286,6.526
		C700.221,83.584,700.942,81.237,701.028,77.144z"/>
	<path d="M710.153,71.301l-2.644-0.055l0.077-3.7l5.877,0.123l-0.405,19.443l-3.233-0.067L710.153,71.301z"/>
	<g>
		<path d="M718.932,86.588v-2.82c0.982,0.658,1.879,0.987,2.689,0.987c0.796,0,1.436-0.308,1.92-0.923
			c0.483-0.615,0.726-1.427,0.726-2.436c0-1.213-0.358-2.191-1.075-2.935c-0.717-0.743-1.949-1.115-3.697-1.115h-0.281v-9.511h8.629
			v3.153h-6.207l-0.486,3.896c2.371,0.256,4.086,0.991,5.147,2.204c1.062,1.214,1.591,2.598,1.591,4.153
			c0,1.632-0.539,3.046-1.618,4.242c-1.079,1.197-2.464,1.794-4.156,1.794C721.232,87.28,720.172,87.049,718.932,86.588z"/>
	</g>
</g>
<path fill="#0E1F62" d="M284.065,78.45c1.036,15.799-10.248,29.401-25.203,30.382c-14.954,0.981-27.919-11.03-28.955-26.829
	c-1.036-15.797,10.249-29.4,25.202-30.382C270.067,50.64,283.031,62.652,284.065,78.45z"/>
<path fill="#EFEFEF" d="M276.284,77.641c2.049,14.844-5.101,28.023-15.971,29.436c-10.868,1.413-21.341-9.473-23.39-24.315
	c-2.049-14.846,5.099-28.025,15.969-29.438S274.234,62.796,276.284,77.641z"/>
<line fill="none" stroke="#0E1F62" stroke-width="6" stroke-miterlimit="10" x1="295" y1="99" x2="295" y2="63"/>
<line fill="none" stroke="#0E1F62" stroke-width="0.9794" stroke-miterlimit="10" x1="288.283" y1="62.845" x2="300.035" y2="62.845"/>
<line fill="none" stroke="#0E1F62" stroke-width="0.9794" stroke-miterlimit="10" x1="288.283" y1="99.063" x2="300.035" y2="99.063"/>
<line fill="none" stroke="#0E1F62" stroke-width="1.9588" stroke-miterlimit="10" x1="295.444" y1="82.678" x2="316.258" y2="62.845"/>
<line fill="none" stroke="#0E1F62" stroke-width="0.9794" stroke-miterlimit="10" x1="311.849" y1="62.845" x2="320.665" y2="62.845"/>
<path fill="#0E1F62" d="M298.018,80.226c0,0,30.727,49.464,86.064,43.342c0,0-48.449,3.449-82.868-46.389L298.018,80.226z"/>
<line fill="none" stroke="#0E1F62" stroke-width="6" stroke-miterlimit="10" x1="336" y1="99" x2="336" y2="63"/>
<line fill="none" stroke="#0E1F62" stroke-width="0.9794" stroke-miterlimit="10" x1="329.418" y1="62.845" x2="341.172" y2="62.845"/>
<line fill="none" stroke="#0E1F62" stroke-miterlimit="10" x1="329.418" y1="99.063" x2="356.658" y2="99.063"/>
<polyline fill="#0E1F62" stroke="#0E1F62" stroke-width="1.9588" stroke-miterlimit="10" points="350.048,99.063 365.718,66.008 
	367.351,62.845 380.411,97.92 376.002,98.409 365.229,67.041 "/>
<line fill="none" stroke="#0E1F62" stroke-width="1.5" stroke-miterlimit="10" x1="356.511" y1="84.372" x2="372.183" y2="84.372"/>
<line fill="none" stroke="#0E1F62" stroke-width="0.9794" stroke-miterlimit="10" x1="372.575" y1="99.063" x2="384.329" y2="99.063"/>
<line fill="none" stroke="#0E1F62" stroke-width="6" stroke-miterlimit="10" x1="395" y1="99" x2="395" y2="63"/>
<line fill="none" stroke="#0E1F62" stroke-width="0.9794" stroke-miterlimit="10" x1="388.184" y1="62.845" x2="399.937" y2="62.845"/>
<line fill="none" stroke="#0E1F62" stroke-width="0.9794" stroke-miterlimit="10" x1="388.184" y1="99.063" x2="399.937" y2="99.063"/>
<line fill="none" stroke="#0E1F62" stroke-width="1.5" stroke-miterlimit="10" x1="395.362" y1="81.454" x2="419.749" y2="81.454"/>
<line fill="none" stroke="#0E1F62" stroke-width="6" stroke-miterlimit="10" x1="419" y1="99" x2="419" y2="63"/>
<line fill="none" stroke="#0E1F62" stroke-width="0.9794" stroke-miterlimit="10" x1="413.648" y1="62.845" x2="425.401" y2="62.845"/>
<line fill="none" stroke="#0E1F62" stroke-width="0.9794" stroke-miterlimit="10" x1="413.648" y1="99.063" x2="425.401" y2="99.063"/>
<path fill="#0E1F62" d="M470.121,80.307c0.766,11.66-7.562,21.699-18.605,22.421c-11.034,0.725-20.601-8.14-21.365-19.798
	c-0.765-11.66,7.563-21.7,18.599-22.424C459.787,59.783,469.352,68.646,470.121,80.307z"/>
<ellipse transform="matrix(0.9911 -0.1328 0.1328 0.9911 -6.8755 60.4884)" fill="#EFEFEF" cx="450.135" cy="81.801" rx="14.654" ry="18.486"/>
<line fill="none" stroke="#0E1F62" stroke-width="0.9794" stroke-miterlimit="10" x1="471.496" y1="99.063" x2="483.25" y2="99.063"/>
<line fill="none" stroke="#0E1F62" stroke-width="1.9297" stroke-miterlimit="10" x1="475.902" y1="98.964" x2="475.902" y2="62.845"/>
<line fill="none" stroke="#0E1F62" stroke-width="0.9794" stroke-miterlimit="10" x1="471.496" y1="62.845" x2="483.25" y2="62.845"/>
<polygon fill="#0E1F62" points="480.312,63 495.33,93.126 492.063,98.964 476.047,66.777 476.396,63 "/>
<line fill="none" stroke="#0E1F62" stroke-width="1.9588" stroke-miterlimit="10" x1="491.967" y1="96.959" x2="509.694" y2="63.373"/>
<line fill="none" stroke="#0E1F62" stroke-width="6" stroke-miterlimit="10" x1="513" y1="99" x2="513" y2="63"/>
<line fill="none" stroke="#0E1F62" stroke-width="0.9794" stroke-miterlimit="10" x1="505.716" y1="62.845" x2="517.47" y2="62.845"/>
<line fill="none" stroke="#0E1F62" stroke-width="0.9794" stroke-miterlimit="10" x1="505.716" y1="99.063" x2="517.47" y2="99.063"/>
<polyline fill="#0E1F62" stroke="#0E1F62" stroke-width="1.9588" stroke-miterlimit="10" points="515.327,105.311 536.888,59.833 
	539.133,54.106 557.808,104.471 551.031,104.411 536.21,61.254 "/>
<line fill="none" stroke="#0E1F62" stroke-width="1.9588" stroke-miterlimit="10" x1="524.219" y1="85.097" x2="545.778" y2="85.097"/>
<line fill="none" stroke="#0E1F62" stroke-width="0.9794" stroke-miterlimit="10" x1="546.317" y1="105.311" x2="562.484" y2="105.311"/>
<line fill="none" stroke="#0E1F62" stroke-width="0.9794" stroke-miterlimit="10" x1="509.694" y1="105.311" x2="521.447" y2="105.311"/>
<path fill="#020E1E" d="M140.333,91.884c0,0,18.417,2.296,36.227,26.859c0,0,20.612,25.296,27.483,75.265
	c0,0,3.436,23.735-4.373,44.66c0,0,14.68-18.739,6.559-59.025c0,0-5.752-41.065-29.981-69.021
	C176.249,110.622,157.25,89.762,140.333,91.884z"/>
<g>
	<rect x="58" y="51.5" fill="#EFEFEF" stroke="#A5A6A4" stroke-width="0.5" stroke-miterlimit="10" width="88" height="46"/>
	<g>
		<path fill="#0E1F62" d="M70.788,88.993v-4.843c2.681,1.237,5.15,1.855,7.408,1.855c1.581,0,2.864-0.396,3.85-1.191
			c0.985-0.794,1.478-1.777,1.478-2.948c0-0.664-0.161-1.275-0.481-1.835c-0.333-0.546-1.169-1.236-2.511-2.069l-4.742-2.933
			c-1.536-0.95-2.612-1.784-3.231-2.5c-0.619-0.716-1.088-1.504-1.409-2.363s-0.481-1.777-0.481-2.754
			c0-2.161,0.747-4.004,2.241-5.527s3.889-2.285,7.186-2.285c2.484,0,4.848,0.319,7.091,0.957v4.57
			c-2.426-1.12-4.749-1.68-6.968-1.68c-1.533,0-2.715,0.29-3.544,0.869c-0.83,0.58-1.244,1.318-1.244,2.217
			c0,0.482,0.109,0.964,0.327,1.445c0.217,0.482,0.888,1.062,2.011,1.738l5.259,3.203c2.234,1.354,3.77,2.669,4.606,3.945
			c0.825,1.276,1.237,2.773,1.237,4.492c0,1.576-0.373,3.031-1.117,4.365c-0.745,1.335-1.859,2.373-3.343,3.115
			s-3.498,1.113-6.042,1.113C76.075,89.95,73.549,89.63,70.788,88.993z"/>
		<path fill="#0E1F62" d="M93.977,89.227V60.321h15.898v3.867H99.082v8.164h9.109v3.613h-9.109v9.395h11.705v3.867H93.977z"/>
		<path fill="#0E1F62" d="M115.723,89.227V60.321h9.848c2.785,0,4.792,0.664,6.024,1.992c1.231,1.328,1.848,3.249,1.848,5.762
			c0,1.953-0.358,3.64-1.073,5.059c-0.715,1.419-1.811,2.542-3.287,3.369c-1.476,0.827-3.576,1.24-6.299,1.24h-1.957v11.484H115.723
			z M120.827,73.895h1.252c1.131,0,2.174-0.198,3.129-0.596c0.955-0.397,1.655-1.087,2.101-2.07
			c0.446-0.983,0.668-2.021,0.668-3.115c0-0.742-0.128-1.422-0.386-2.041c-0.257-0.618-0.683-1.09-1.277-1.416
			c-0.595-0.325-1.795-0.488-3.601-0.488h-1.886V73.895z"/>
	</g>
</g>
<g>
	<defs>
		<rect id="SVGID_1_" x="21" y="317" width="749" height="44"/>
	</defs>
	<clipPath id="SVGID_2_">
		<use xlink:href="#SVGID_1_"  overflow="visible"/>
	</clipPath>
	<g clip-path="url(#SVGID_2_)">
		
			<image overflow="visible" opacity="0.2" width="723" height="334" xlink:href="311C7811CA096BD9.png"  transform="matrix(1 0 0 1 38 30)">
		</image>
		<g>
			<path fill="#172D62" d="M754,57c0-11.046-8.954-20-20-20H64c-11.046,0-20,8.954-20,20v281c0,11.046,8.954,20,20,20h670
				c11.046,0,20-8.954,20-20V57z"/>
		</g>
	</g>
</g>
<path fill="#10192C" d="M188.721,357c0,0,4.036-4.499,2.405-18.855c0,0,0.04-9.66-13.462-19.902l26.557-29.505
	c0,0,9.786-7.536,2.337-14.986c0,0-10.703-11.683-37.706-21.925c0,0-2.478-8.101-10.24-12.592c0,0,10.71-16.771,5.588-45.636
	c0,0,9.518-11.852,29.071-27.682c0,0,10.244-0.001,10.244-6.053c0,0-3.26-2.797-0.931-6.056c0,0,6.983-7.916-6.053-6.053
	c0,0-10.604,4.398-18.674,13.708l-10.843,10.552c0,0-3.016-5.588-13.016-1.863v-3.103c0,0,5.101-0.619,2.307-4.033
	c0,0,2.085-4.037-1.639-6.831c0,0-2.994-2.739-1.751-5.715c0,0,2.229-3.284-3.668-6.078c0,0-13.318-9.933-24.492-1.244
	c0,0-6.194,5.279-2.779,12.417c0,0-8.063-2.173-14.891,3.726c0,0-7.756,7.448-14.585-1.553c0,0-3.722,13.035,6.831,18.932
	c0,0-2.172,9.933,5.277,13.035c0,0-17.691,33.831,15.519,23.59c0,0,4.657,4.034-1.861,14.587c0,0-7.759,11.176-10.242,21.729
	c0,0-13.037,10.551-13.657,22.966c0,0-42.831,3.106-24.83,34.764c0,0,2.793,2.172,0.31,9.312c0,0-21.105,4.188-25.14,18.775
	c0,0-6.828,21.572,19.244,21.572H188.721z"/>
<path fill="#F9F9F9" d="M45.757,349.131c0,0,1.703-75.839-0.691-193.898C45.216,152.534,33.752,351.74,45.757,349.131z"/>
<path fill="#FFFFFF" stroke="#848484" stroke-width="0.25" stroke-miterlimit="10" d="M177.5,51.5c0,3.866-3.134,7-7,7h-9
	c-3.866,0-7-3.134-7-7l0,0c0-3.866,3.134-7,7-7h9C174.366,44.5,177.5,47.634,177.5,51.5L177.5,51.5z"/>
<path fill="#FFFFFF" stroke="#848484" stroke-width="0.25" stroke-miterlimit="10" d="M637.5,51.5c0,3.866-3.134,7-7,7h-9
	c-3.866,0-7-3.134-7-7l0,0c0-3.866,3.134-7,7-7h9C634.366,44.5,637.5,47.634,637.5,51.5L637.5,51.5z"/>
<path fill="#FFFFFF" stroke="#848484" stroke-width="0.25" stroke-miterlimit="10" d="M177.5,344.5c0,3.866-3.134,7-7,7h-9
	c-3.866,0-7-3.134-7-7l0,0c0-3.866,3.134-7,7-7h9C174.366,337.5,177.5,340.634,177.5,344.5L177.5,344.5z"/>
<path fill="#FFFFFF" stroke="#848484" stroke-width="0.25" stroke-miterlimit="10" d="M637.5,344.5c0,3.866-3.134,7-7,7h-9
	c-3.866,0-7-3.134-7-7l0,0c0-3.866,3.134-7,7-7h9C634.366,337.5,637.5,340.634,637.5,344.5L637.5,344.5z"/>
<path fill="#E2E2E2" d="M148.372,291.82l15.52,13.968c0,0,4.035-13.347,18.623-20.176c0,0-18.933-2.481-22.658-5.587
	C159.857,280.025,154.891,289.027,148.372,291.82z"/>
<g>
	<path d="M660.873,67.734c0-3.136,1.837-4.203,4.422-4.203c2.586,0,4.435,1.067,4.435,4.203c0,3.146-1.849,4.213-4.435,4.213
		C662.71,71.947,660.873,70.88,660.873,67.734z M667.419,67.778c0-1.265-0.43-2.156-2.124-2.156c-1.693,0-2.123,0.891-2.123,2.156
		s0.43,2.167,2.123,2.167C666.989,69.945,667.419,69.043,667.419,67.778z"/>
	<path d="M664.883,78.691l-0.925,1.122v2.002h-2.244v-8.152h2.244v3.202l2.563-3.202h2.509l-2.685,3.246l3.08,4.907h-2.585
		L664.883,78.691z"/>
</g>
<g>
	<path fill="#EFEFEF" d="M206.695,322.341h4.547l14.428,21.256h0.087v-21.256h4.823v29.9h-4.569l-14.406-21.256h-0.087v21.256
		h-4.823V322.341z"/>
	<path fill="#EFEFEF" d="M249.874,347.56h-8.458l-1.713,4.682h-3.579l8.106-20.931h2.829l8.106,20.931h-3.564L249.874,347.56z
		 M248.91,344.749l-3.227-9.157h-0.061l-3.227,9.157H248.91z"/>
	<path fill="#EFEFEF" d="M260.367,334.123h-6.112v-2.812h15.604v2.812h-6.116v18.118h-3.376V334.123z"/>
	<path fill="#EFEFEF" d="M273.556,331.311h3.376v20.931h-3.376V331.311z"/>
	<path fill="#EFEFEF" d="M280.38,331.311h3.574l5.057,15.943h0.061l5.07-15.943h3.574l-7.361,20.931h-2.627L280.38,331.311z"/>
	<path fill="#EFEFEF" d="M301.497,331.311h14.246v2.984h-10.87v5.989h9.279v2.812h-9.279v6.161h10.87v2.984h-14.246V331.311z"/>
	<path fill="#EFEFEF" d="M347.696,345.554h-12.083l-2.446,6.688h-5.113l11.58-29.9h4.042l11.58,29.9h-5.091L347.696,345.554z
		 M346.319,341.538l-4.61-13.081h-0.087l-4.61,13.081H346.319z"/>
	<path fill="#EFEFEF" d="M359.692,331.311h3.182l6.395,13.644l6.271-13.644h3.193v20.931h-3.377v-13.053h-0.076l-4.667,10.052
		h-2.816l-4.667-10.052h-0.062v13.053h-3.376V331.311z"/>
	<path fill="#EFEFEF" d="M385.009,331.311h14.246v2.984h-10.87v5.989h9.279v2.812h-9.279v6.161h10.87v2.984h-14.246V331.311z"/>
	<path fill="#EFEFEF" d="M403.804,331.311h8.713c1.858,0,3.374,0.46,4.548,1.379c1.413,1.043,2.15,2.531,2.211,4.465
		c-0.041,2.842-1.476,4.775-4.306,5.799l5.161,9.288h-4.012l-4.615-8.944h-4.324v8.944h-3.376V331.311z M407.18,340.485h5.122
		c1.268-0.019,2.218-0.364,2.852-1.036c0.624-0.624,0.936-1.392,0.936-2.303c-0.021-1.094-0.394-1.887-1.119-2.375
		c-0.572-0.432-1.4-0.648-2.484-0.648h-5.306V340.485z"/>
	<path fill="#EFEFEF" d="M424.335,331.311h3.376v20.931h-3.376V331.311z"/>
	<path fill="#EFEFEF" d="M448.523,346.394c-0.49,1.94-1.424,3.431-2.801,4.472c-1.418,1.032-3.096,1.548-5.034,1.548
		c-1.753-0.038-3.216-0.439-4.388-1.205c-1.192-0.737-2.059-1.589-2.599-2.556c-0.164-0.315-0.312-0.617-0.443-0.904
		c-0.123-0.297-0.225-0.67-0.307-1.12c-0.152-0.842-0.229-2.459-0.229-4.852c0-2.431,0.076-4.058,0.229-4.882
		c0.163-0.822,0.412-1.487,0.749-1.994c0.54-0.967,1.407-1.828,2.601-2.584c1.172-0.766,2.636-1.158,4.39-1.178
		c2.151,0.02,3.905,0.616,5.262,1.791c1.355,1.186,2.212,2.652,2.569,4.401h-3.585c-0.275-0.845-0.776-1.563-1.501-2.158
		c-0.756-0.565-1.675-0.858-2.758-0.878c-0.796,0.02-1.48,0.168-2.053,0.446c-0.582,0.288-1.052,0.647-1.409,1.079
		c-0.439,0.451-0.73,1.031-0.873,1.741c-0.163,0.748-0.245,2.152-0.245,4.215c0,2.062,0.082,3.457,0.245,4.186
		c0.143,0.729,0.435,1.319,0.874,1.77c0.357,0.432,0.827,0.782,1.41,1.051c0.571,0.316,1.256,0.475,2.053,0.475
		c1.9,0,3.321-0.954,4.261-2.863H448.523z"/>
	<path fill="#EFEFEF" d="M470.419,345.554h-12.083l-2.446,6.688h-5.113l11.58-29.9h4.042l11.58,29.9h-5.091L470.419,345.554z
		 M469.042,341.538l-4.61-13.081h-0.087l-4.61,13.081H469.042z"/>
</g>
</svg>
