<?xml version="1.0" encoding="utf-8"?>
<!-- Generator: Adobe Illustrator 16.0.0, SVG Export Plug-In . SVG Version: 6.00 Build 0)  -->
<!DOCTYPE svg PUBLIC "-//W3C//DTD SVG 1.1//EN" "http://www.w3.org/Graphics/SVG/1.1/DTD/svg11.dtd">
<svg version="1.1" id="Layer_1" xmlns="http://www.w3.org/2000/svg" xmlns:xlink="http://www.w3.org/1999/xlink" x="0px" y="0px"
	 width="800px" height="400px" viewBox="0 0 800 400" enable-background="new 0 0 800 400" xml:space="preserve">
<g>
	
		<image overflow="visible" opacity="0.2" width="755" height="369" xlink:href="ED86FB141A2F0522.png"  transform="matrix(1 0 0 1 19 21)">
	</image>
	<g>
		<path fill="#E2E2E2" d="M767,46c0-13.255-10.745-24-24-24H43c-13.255,0-24,10.745-24,24v314c0,13.255,10.745,24,24,24h700
			c13.255,0,24-10.745,24-24V46z"/>
	</g>
</g>
<g>
	
		<image overflow="visible" opacity="0.2" width="723" height="334" xlink:href="ED86FB141A2F0521.png"  transform="matrix(1 0 0 1 32 36)">
	</image>
	<g>
		<path fill="#EFEFEF" d="M748,63c0-11.046-8.954-20-20-20H58c-11.046,0-20,8.954-20,20v281c0,11.046,8.954,20,20,20h670
			c11.046,0,20-8.954,20-20V63z"/>
	</g>
</g>
<path fill="#B1CBE1" d="M40,186.116l28.621-43.085l12.362,7.494l32.904-50.282l14.345,8.829c0,0,40.826-60.067,54.067-47.639
	c0,0,13.275,10.2,34.7,29.318c0,0,12.006-10.277,50.722,16.139c0,0,43.29,25.002,75.954,49.932c0,0,38.517,28.97,59.203,51.773
	c0,0,76.787-47.318,110.621-37.386c0,0,68-70.81,111.953-55.509c0,0,15.047,5.193,39.549,30.819c0,0,27.148,26.689,79.998,30.956
	V66.168c0,0,2.293-20.377-29.814-20.168H54.318c0,0-15.312-3.679-14.318,19.802V186.116z"/>
<path fill="#F9F9F9" d="M42,65.334c3.531-20.05,16-22.667,16-22.667C38.104,42.659,38,62,38,62s-2.369,14.698,0,52.5
	C38,114.5,39.666,78.584,42,65.334z"/>
<rect x="648" y="300.501" transform="matrix(0.9963 -0.0864 0.0864 0.9963 -25.2474 60.8387)" fill="#3A8039" width="84" height="42.999"/>
<rect x="648" y="300.5" transform="matrix(0.9998 0.0209 -0.0209 0.9998 6.8699 -14.329)" fill="#1045AF" width="84" height="43.001"/>
<g>
	<path fill="#EFEFEF" d="M669.54,329.143l5.193-5.379c2.404-2.496,3.244-3.449,3.278-5.129c0.033-1.549-0.499-2.268-2.619-2.312
		c-1.512-0.031-3.286,0.483-4.244,1.119l-1.424-3.205c1.681-1.042,3.141-1.562,6.079-1.502c3.716,0.078,5.573,1.64,5.491,5.575
		c-0.062,2.966-1.255,4.726-3.808,7.351l-3.284,3.396l7.032,0.146l-0.071,3.411l-11.691-0.243L669.54,329.143z"/>
	<path fill="#EFEFEF" d="M684.825,322.93c0.138-6.56,2.037-9.984,7.032-9.881c4.912,0.104,6.708,3.605,6.571,10.166
		c-0.137,6.533-2.077,9.984-6.99,9.881C686.443,332.992,684.689,329.464,684.825,322.93z M695.028,323.144
		c0.086-4.12-0.541-6.286-3.249-6.343c-2.729-0.057-3.467,2.081-3.553,6.201c-0.085,4.093,0.559,6.469,3.286,6.525
		C694.221,329.584,694.942,327.236,695.028,323.144z"/>
	<path fill="#EFEFEF" d="M704.153,317.301l-2.644-0.055l0.077-3.699l5.877,0.123l-0.405,19.442l-3.233-0.067L704.153,317.301z"/>
	<g>
		<path fill="#EFEFEF" d="M712.932,332.588v-2.82c0.982,0.658,1.879,0.987,2.689,0.987c0.796,0,1.436-0.308,1.92-0.923
			c0.483-0.615,0.726-1.427,0.726-2.436c0-1.213-0.358-2.191-1.075-2.936c-0.717-0.742-1.949-1.114-3.697-1.114h-0.281v-9.511h8.629
			v3.153h-6.207l-0.486,3.896c2.371,0.256,4.086,0.991,5.147,2.204c1.062,1.214,1.591,2.598,1.591,4.153
			c0,1.632-0.539,3.046-1.618,4.242s-2.464,1.794-4.156,1.794C715.232,333.279,714.172,333.049,712.932,332.588z"/>
	</g>
</g>
<g>
	<rect x="52" y="298.5" fill="#EFEFEF" stroke="#A5A6A4" stroke-width="0.5" stroke-miterlimit="10" width="88" height="46"/>
	<g>
		<path fill="#0E1F62" d="M64.788,335.992v-4.843c2.681,1.237,5.15,1.854,7.408,1.854c1.581,0,2.864-0.396,3.85-1.19
			c0.985-0.794,1.478-1.776,1.478-2.948c0-0.664-0.161-1.275-0.481-1.836c-0.333-0.546-1.169-1.236-2.511-2.068l-4.742-2.934
			c-1.536-0.949-2.612-1.783-3.231-2.5c-0.619-0.715-1.088-1.504-1.409-2.363s-0.481-1.777-0.481-2.754
			c0-2.16,0.747-4.004,2.241-5.527s3.889-2.285,7.186-2.285c2.484,0,4.848,0.32,7.091,0.957v4.57
			c-2.426-1.119-4.749-1.68-6.968-1.68c-1.533,0-2.715,0.291-3.544,0.869c-0.83,0.58-1.244,1.318-1.244,2.217
			c0,0.482,0.109,0.965,0.327,1.445c0.217,0.482,0.888,1.062,2.011,1.738l5.259,3.203c2.234,1.355,3.77,2.67,4.606,3.945
			c0.825,1.277,1.237,2.773,1.237,4.492c0,1.576-0.373,3.031-1.117,4.365c-0.745,1.336-1.859,2.373-3.343,3.115
			s-3.498,1.113-6.042,1.113C70.075,336.949,67.549,336.631,64.788,335.992z"/>
		<path fill="#0E1F62" d="M87.977,336.227V307.32h15.898v3.867H93.082v8.164h9.109v3.613h-9.109v9.395h11.705v3.867H87.977z"/>
		<path fill="#0E1F62" d="M109.723,336.227V307.32h9.848c2.785,0,4.792,0.664,6.024,1.992c1.231,1.328,1.848,3.25,1.848,5.762
			c0,1.953-0.358,3.641-1.073,5.059c-0.715,1.42-1.811,2.543-3.287,3.369c-1.476,0.828-3.576,1.24-6.299,1.24h-1.957v11.484H109.723
			z M114.827,320.895h1.252c1.131,0,2.174-0.197,3.129-0.596c0.955-0.396,1.655-1.086,2.101-2.07
			c0.446-0.982,0.668-2.021,0.668-3.115c0-0.742-0.128-1.422-0.386-2.041c-0.257-0.617-0.683-1.09-1.277-1.416
			c-0.595-0.324-1.795-0.488-3.601-0.488h-1.886V320.895z"/>
	</g>
</g>
<path fill="#F9F9F9" d="M39.758,355.131c0,0,1.702-75.839-0.691-193.898C39.216,158.534,27.752,357.74,39.758,355.131z"/>
<path fill="#FFFFFF" stroke="#848484" stroke-miterlimit="10" d="M171.5,57.5c0,3.866-3.134,7-7,7h-9c-3.866,0-7-3.134-7-7l0,0
	c0-3.866,3.134-7,7-7h9C168.366,50.5,171.5,53.634,171.5,57.5L171.5,57.5z"/>
<path fill="#FFFFFF" stroke="#848484" stroke-miterlimit="10" d="M631.5,57.5c0,3.866-3.134,7-7,7h-9c-3.866,0-7-3.134-7-7l0,0
	c0-3.866,3.134-7,7-7h9C628.366,50.5,631.5,53.634,631.5,57.5L631.5,57.5z"/>
<path fill="#3D4259" d="M151.25,363.346l12.415-29.137l10.329,4.926l12.789-21.439l-7-3.714l10.307-3.712l-5.356-2.062l5.358-2.061
	l-3.091-2.885l2.267-1.752l1.236-7.727l1.235,8.035l2.164,0.465l-0.927,3.245l5.1,1.422l-1.545,4.05h3.863l-4.791,3.909l7.418,0.796
	c0,0-3.555,7.893,0.772,8.666l7.728-10.735c0,0,2.318-4.518-2.318-5.909l4.637-1.254c0,0,0.309-3.408-2.318-4.799l3.4-0.623
	l0.771-5.72l2.01,7.725c0,0,2.936-0.155,3.555,5.255c0,0,1.699,7.107,5.254,3.398c0,0-2.009,8.5,2.781,8.81
	c0,0,5.564-1.391,1.392-5.101c0,0,4.636-0.154,2.317-5.717c0,0,1.547-0.773,3.4,3.709c0,0,2.009-3.709-2.627-7.882
	c0,0,4.25-1.392,2.975-9.582c0,0,3.516,1.236,2.589,9.272l6.954-0.463l-5.254,3.399c0,0-2.01,4.173,5.254,8.345
	c0,0-5.408,10.329,5.564,10.342c0,0,3.863-0.914,5.254,7.276c0,0,1.545,7.418,11.281,7.573c0,0-0.154-4.174,1.7-8.037
	c0,0,2.627-4.945-1.854-7.572c0,0,4.173-1.416,6.336,0.76c0,0-1.7-4.005,1.545-8.332c0,0,3.864-5.873,2.01-8.964
	c0,0,3.245,2.474,2.318,11.437l2.473,0.154l-1.236,4.173l6.336-1.082l-4.327,7.108c0,0,7.572,4.945,7.572,9.891
	c0,0,3.863,12.828,18.235,11.9l2.01-3.709l3.554-1.854l-3.554-2.318l3.554-0.618l-0.771-6.182l3.245,4.328l2.009-8.5
	c0,0,2.562,6.307,0.707,10.942c0,0,3.774,0.956,5.475-1.671c0,0,0,2.627-1.392,4.173l4.637-0.154c0,0,0.154,2.618-3.863,6.173
	c0,0,2.009,5.264,8.036,9.264h-96.898c0,0-0.153-10.964-6.181-5.091c0,0-1.545,2.94-2.318-4.323c0,0-1.7-3.166-5.409,5.644
	c0,0-2.781,5.216-8.654-0.347c0,0,8.654,0.908,1.7-6.51c0,0-2.465-3.696-4.019-6.81c0,0-3.091-5.722,3.4-7.731
	c0,0-5.254-3.248-9.736,2.934c0,0,0.618-8.5-2.781-10.355c0,0-1.237,3.709-0.618,6.799l-3.709,0.463l2.163,6.183
	c0,0-3.4-3.864-6.182-1.7c0,0-1.699,1.236,3.555,6.027l-2.01,1.545l1.083,4.328c0,0-10.818,1.566-4.792,5.121
	c0,0,0.155,4.04-6.954,4.04L151.25,363.346z"/>
<path fill="#FFFFFF" stroke="#848484" stroke-miterlimit="10" d="M171.5,350.5c0,3.866-3.134,7-7,7h-9c-3.866,0-7-3.134-7-7l0,0
	c0-3.866,3.134-7,7-7h9C168.366,343.5,171.5,346.634,171.5,350.5L171.5,350.5z"/>
<path fill="#FFFFFF" stroke="#848484" stroke-miterlimit="10" d="M631.5,350.5c0,3.866-3.134,7-7,7h-9c-3.866,0-7-3.134-7-7l0,0
	c0-3.866,3.134-7,7-7h9C628.366,343.5,631.5,346.634,631.5,350.5L631.5,350.5z"/>
<g>
	<path fill="#EFEFEF" d="M654.873,313.734c0-3.137,1.837-4.203,4.422-4.203c2.586,0,4.435,1.066,4.435,4.203
		c0,3.146-1.849,4.213-4.435,4.213C656.71,317.947,654.873,316.881,654.873,313.734z M661.419,313.777
		c0-1.265-0.43-2.156-2.124-2.156c-1.693,0-2.123,0.892-2.123,2.156c0,1.266,0.43,2.168,2.123,2.168
		C660.989,315.945,661.419,315.043,661.419,313.777z"/>
	<path fill="#EFEFEF" d="M659.35,326.373h-1.474v2.442h-2.223v-8.152h4.137c2.915,0,3.41,1.276,3.41,2.806
		c0,1.012-0.253,2.09-1.573,2.607l1.485,2.739h-2.442L659.35,326.373z M659.713,324.48c0.88,0,1.188-0.176,1.188-0.924
		c0-0.781-0.286-0.957-1.199-0.957h-1.826v1.881H659.713z"/>
</g>
<path fill="#3A8039" d="M382,364v-12.251c0,0-0.829-2.298-2.871,0c0,0-1.562,1.786-4.369,0c0,0-3.527-2.808-6.971-1.021
	c0,0-4.062,0.766-3.678-2.68c0,0,1.287-5.232-3.178-4.084c0,0-8.29,3.572-9.821,0.637c0,0-1.784-1.531,4.087-1.785
	c0,0,1.278,0.254,0.639-2.553c0,0,2.299-2.17,7.148,0l4.85,0.709c0,0,1.531,0.027,0.893,4.027h1.915l0.766,0.949
	c0,0,3.062,0.668,4.978-0.354c0,0,3.316-4.836,7.146-2.539c0,0,1.658,0.582,1.403-10.266c0,0-1.531-0.922-3.318,1.375
	c0,0-4.722,7.771-5.359,5.346l0.254-2.688l-2.807,0.635c0,0-2.279-0.384,1.294-3.319c0,0,7-6.638,10-5.999v-8.04
	c0,0-4.882,2.169-7.434,0c0,0-2.824-0.639-3.078,2.042l-0.2,2.807c0,0-3.161-1.148-4.312,3.191c0,0-1.518,7.656-7.132,5.359
	c0,0-3.438-1.148-4.46-0.256c0,0-2.165,1.66-3.824-1.531c0,0-4.466,2.553-4.976-0.127c0,0-0.765-2.68-3.062-0.128
	c0,0-5.358,5.87-6.764,1.021c0,0-0.766-2.68,4.212-3.445c0,0,3.573-0.255,2.169-4.339c0,0-3.444-0.511-7.656,2.425
	c0,0-4.084,2.425-8.55-0.766c0,0,5.869-3.062,12.378-4.467c0,0-1.659-1.919-9.443-1.853c0,0-1.915,0.832-2.935-1.849
	c0,0-5.105,0.639-5.743-1.148l-4.722-1.658l8.04-3.701c0,0,1.659,0.256-0.128-3.445c0,0-1.276-2.68,0.128-5.232l3.19,1.531
	l1.531,2.042l4.976,0.511c0,0,1.787,1.021,2.299,2.807c0,0,5.614-0.766,6.891,1.787c0,0,8.295,2.68,13.271-5.232
	c0,0,2.042-1.914,4.339-0.127c0,0,5.233-7.02,7.02-2.553c0,0,2.328,2.003,7.434-1.486c0,0,4.54-4.512,6.54-1.832v-15.059
	c0,0-5.902-2.552-6.03,6.126c0,0-0.987,3.303-3.31-1.349c-0.051-0.1-0.046-0.203-0.096-0.311c-2.425-5.104-7.119-4.85-8.395,0.511
	c0,0,0.397,3.828-4.197,3.445c0,0-8.033-0.638-3.184-3.445c0,0,2.939-1.532-0.507-2.425c0,0-2.041-1.211,1.405-2.902
	c0,0,3.191-3.096-1.912-2.713c0,0-5.488,8.934-8.806,2.17c0,0-6.126-1.021-2.68-8.295c0,0-4.978-6.254-9.315-5.998
	c0,0-2.299-1.787,3.7-1.531c0,0,3.062,0.51,5.743-4.34c0,0,2.552-4.85,7.273,0c0,0,4.339,4.084,9.188-0.254
	c0,0,4.468-5.744,10.593-4.084c0,0,4.339,1.275,5.359-1.914c0,0-0.766-1.915-10.464-1.277c0,0-4.339,1.277-1.276-3.445
	c0,0,2.297-3.828,4.594-2.041c0,0,1.915-3.829,4.468-2.043c0,0,1.531-3.572,3.572-1.914c0,0,2.681-6.238,5.743-0.439l0.894-7.855
	c0,0-1.149-3.701-3.956,0c0,0-1.787,2.297-3.956-0.51c0,0-2.809-3.063-5.615,2.169c0,0-3.956,7.529-7.657,3.19
	c0,0-2.552-3.445-7.146,0.511c0,0-5.359,4.083-8.422-1.276c0,0-2.298-3.828-6.509-3.062c0,0,4.338-7.657,11.357-9.188
	c0,0,5.411-1.419,11.996-1.915c0,0,10.209-1.148,3.19-4.721c0,0-3.19-1.277-7.402,0.766c0,0,0.256-8.424-7.656-4.084
	c0,0-3.573,2.807-8.679,1.658c0,0,3.318-2.297,3.446-5.742c0,0,0-2.807-3.062-4.85c0,0-2.936-2.297,5.104-5.359
	c0,0,2.552-0.511,2.297-3.828l2.512-0.904c0,0,4.635-2.542-4.426-3.308c0,0-7.657,0-1.531-1.531c0,0,4.084-0.893-0.766-2.425
	c0,0-3.574-0.638-1.915-2.68c0,0,2.17-2.042,5.487,0c0,0,5.36,2.553,9.444,1.276c0,0,2.68-3.063,8.04,0.766
	c0,0,6.635,4.85,9.825-4.211c0,0,2.298-8.295,5.361-1.276c0,0,1.275,2.68,3.444-2.936c0,0,2.681-6.508-1.403-9.826
	c0,0-8.04,9.443-9.827,0c0,0-0.638-4.594-3.316-1.787c0,0-2.553,4.084-4.723,0.383c0,0-2.68-3.573-8.678,2.425
	c0,0-9.316,11.327-18.377-3.716c0,0-2.807-3.303,6.509-3.43c0,0,8.423,1.021,13.526-4.722c0,0,4.34-5.487,7.02-1.403
	c0,0,2.68,4.339,8.805,3.701c0,0,2.809-0.51,4.468-1.914c0,0,0.724-1.149,2.982,0.173c0,0,4.847,1.399,4.847-3.471v-13.42
	c0,0-5.19,0-8.637,5.743c0,0-2.021,2.808-3.936-1.276c0,0-8.73,8.806-15.621,3.701c0,0-4.048-2.297-6.345,1.276
	c0,0-2.023-4.339-5.725-2.297c0,0-6.115-1.532-3.053-6.381c0,0,3.066-5.487,6.64,0c0,0,2.045,3.063,3.576,0
	c0,0,1.405-2.552,0.001-6.125c0,0-1.913-4.339,4.596-3.701c0,0,4.978,1.403,5.104,6.253c0,0-0.382,2.552,2.681,2.552
	c0,0,3.318,0,1.276-6.125c0,0,2.241,0.021,4.467,1.787c0,0,2.552,2.808,5.786-2.68c0,0-7.573-1.021-8.595-5.743
	c0,0-11.484-2.297-8.805-8.167c0,0,1.658-2.042,4.722,0.893c0,0,1.148-5.743,4.339-4.211l4.85,2.297c0,0,1.275-7.274,5.231-1.404
	c0,0,3.062,4.467,3.318-2.425c0,0-0.128-3.573,4.722-3.317l0.607-6.381c0,0-9.195-7.53-17.918-3.829l6.336-6.465
	c0,0,2.929-1.527,4.212,2.653l9.315-8.056c0,0-7.146,1.148-7.912-4.467c0,0,0.487-4.963-3.423-2.169c0,0,0.896-8.687,10.39-6.381
	L397.146,56l2.191,30.087c0,0,5.183,3.081,2.572,10.432c0,0-8.508,27.693,2.956,29.607c0,0,0.908,0.511,2.677-2.424
	c0,0,1.258-1.659,4.704,1.787c0,0,2.425,2.042,6.635-0.128c0,0,1.405,3.19-4.21,8.167c0,0-3.518,2.936,4.366,5.36
	c0,0,6.48,2.808,8.012,12.124l-3.19-0.51c0,0,3.061,8.295-2.616,1.021c0,0-6.833-9.571-15.764-3.445c0,0-1.272,2.68,4.98,3.956
	c0,0,4.467,0.51,7.707,4.782c0,0,1.864,3.896,7.735,3.896c0,0,3.19-0.702,5.869,2.552c0,0,5.828,5.341,9.785-2.446
	c0.101-0.197,0.199-0.403,0.297-0.617c3.956-8.678,3.828,2.68,1.148,8.167c0,0-4.001,7.384,1.499,8.884c0,0,10.75,2.5,17.643-3.014
	c0,0-3.813,6.377-4.195,6.632c-0.384,0.255-5.447,8.132-16.86,2.429c0,0-3.834-2.225-5.232,0c0,0-1.148,3.19,3.956,4.849
	c0,0,12.251,2.68,6.892,12.379c0,0-3.445,6.891-11.23,2.297c0,0-7.019-5.36-7.019-0.256c0,0,0.766,9.061-5.615,3.318
	c0,0-6.254-5.998-7.785,2.297c0,0-1.02,7.232-11.612,0.682c0,0-3.829-4.255-3.573,2.637c0,0-0.128,3.318,6.253,4.338
	c0,0,9.571,2.682-3.445,3.191c0,0-7.274,1.404,1.403,4.977c0,0,3.828,1.659,7.274-1.787c0,0,5.87-5.869,9.954,1.148
	c0,0,2.936,4.084-2.936,8.551l-3.19,1.914c0,0-1.786,1.021,0.638,2.042c0,0,11.996-0.894,16.08,3.318c0,0,17.101-6.126,13.527,6.253
	c0,0-1.404,3.701-9.826,6.254c0,0-1.021,2.68,6.636,3.7c0,0,14.4,3.219-3.976,10.365c0,0,7.039,5.842-1.384,10.181
	c0,0-3.956,1.276-4.34,7.146c0,0-2.425-0.255-2.552,3.062c0,0,0.127,3.957-6.764,3.318c0,0-2.553-1.148-4.34,3.19
	c0,0-3.133,6.126-6.579-3.573c0,0-4.302-10.592-11.302-4.467v8.934c0,0,7.281,2.553,8.048,6.764c0,0,5.299,2.936,11.042-1.531
	c0,0,5.458-3.574,11.711,2.17c0,0,4.516,3.189,7.961,0.127c0,0,1.557,2.041-1.379,5.998c0,0-0.115,3.955,7.031,2.552l-0.377,1.532
	c0,0,7.277-0.895,12.254,4.083c0,0,5.233,2.169,8.934-2.68l-0.892,2.68l6.382-0.894l-9.572,5.36c0,0,7.53,7.657-7.911,2.808
	c0,0-4.595,4.594-8.551-0.894c0,0-3.19-4.339-7.273,1.276c0,0-2.808,3.19-4.594-1.021c0,0-2.298-3.956-5.36,0.894
	c0,0-2.426,2.68-4.723-3.19c0,0-1.531-3.956-6.891-2.17l-3.828-3.317c0,0-11.868-4.083-12.506,8.04l0.127,2.935
	c0,0,4.467-1.531,10.72,2.553c0,0,4.594,3.317,10.847-0.255c0,0,6.765-3.063,9.827,1.914c0,0,9.443-0.383,11.612,7.401
	c0,0,1.404,5.614,10.465,5.743l-3.317,1.531c0,0-2.17,6.635-8.04,1.148c0,0-2.17-3.828-5.743-1.404c0,0-3.317,2.17-5.104-1.148
	c0,0,0.638-2.424-7.912-1.148c0,0-8.311,2.807-11.868-6.254c0,0-2.169-7.656-11.103-3.955c0,0,0.128,12.633,2.553,24.246
	c0,0,1.021,3.446,0.51,8.551H382z"/>
<path fill="#EFEFEF" d="M379.385,311.742c0,0,0.615,1.467,5.615,1.467v-4.339C385,308.87,380.278,308.742,379.385,311.742z"/>
<path fill="#EFEFEF" d="M358.902,277.604c-1.495,0.374,10.848,4.084,23.737-6.253c0,0,2.679-2.042-4.084-1.276
	c0,0-3.446,1.786-6.253,0.894c0,0-6.27-1.831-8.424,2.295C363.879,273.264,362.476,276.711,358.902,277.604z"/>
<path fill="#EFEFEF" d="M399.484,266.375c0,0-1.404,6.125,4.211,6.252C403.695,272.627,404.461,265.098,399.484,266.375z"/>
<path fill="#EFEFEF" d="M399.994,252.975c0,0-2.424,8.678,5.743,10.082c0,0,8.678,0.255,12.89,6.371c0,0,1.147,2.729,6.891,0.475
	c0,0,16.08-4.805-1.275-6.336c0,0-7.53,0.129-13.018-6.508C411.225,257.059,408.162,252.975,399.994,252.975z"/>
<path fill="#EFEFEF" d="M390.807,218.137c0,0-5.742,1.02-3.957,3.189c0,0,4.978,4.467,4.468,0
	C391.317,221.326,390.168,219.668,390.807,218.137z"/>
<path fill="#EFEFEF" d="M388.93,209.586c0,0-7.375,3.126-3.865,3.189c0,0,2.615-0.511,3.865,1.531c0,0,2.004,3.383,2.424-2.36
	C391.354,211.946,391.33,208.803,388.93,209.586z"/>
<path fill="#EFEFEF" d="M386.735,196.761c0,0-13.2,3.254-14.413,9.827c0,0-0.573,4.402,5.999,0c0,0,2.36-1.468,6.189-0.447
	c0,0,1.723,1.213,1.403-4.467C385.914,201.674,389.36,196.059,386.735,196.761z"/>
<path fill="#B1CBE1" d="M422.901,170.854c0,0,3.829-4.275,8.04,0.957C430.941,171.812,427.24,175.512,422.901,170.854z"/>
<path fill="#B1CBE1" d="M401.207,166.452c0,0,0,4.755,6.637,4.275c0,0,4.402-0.444,7.528,3.509
	C415.372,174.236,415.372,165.175,401.207,166.452z"/>
<path fill="#B1CBE1" d="M401,155.062v7.328c0,0,4.338,0.451,8.168-4.62C409.168,157.771,413.36,154.894,401,155.062z"/>
<path fill="#B1CBE1" d="M403.312,174.236c0,0-5.68,7.21,1.851,15.825c0,0,2.042,2.361,4.147-0.957c0,0,1.786-2.872,7.466,1.148
	c0,0,5.104,3.063,8.806-3.637c0,0,1.913-2.744-3.765-5.487c0,0-4.53-2.297-6.445,0.83c0,0-1.403,4.403-5.679,1.914
	C409.693,183.871,404.972,180.745,403.312,174.236z"/>
<ellipse fill="#3D4259" cx="286.857" cy="78.336" rx="23.431" ry="25.274"/>
<ellipse transform="matrix(0.8543 -0.5198 0.5198 0.8543 0.6858 160.3225)" fill="#B1CBE1" cx="286.31" cy="78.938" rx="14.283" ry="20.95"/>
<path fill="#3D4259" d="M345.961,102.82c0,0-24.082-0.442-31.594,0.132v-3.028c0,0,8.163,0,8.822-3.686
	c0,0,1.184-13.953-0.396-26.195l-4.345,0.132l-0.264-1.58c0,0,8.821-1.186,13.427-5.397v13.295c0,0,8.162-17.376,18.562-10.268
	l-3.16,6.846c0,0-8.949-3.949-13.162,8.293c0,0-2.897,10.135,1.174,15.327c0,0,2.115,3.103,10.936,2.971V102.82z"/>
<path fill="#3D4259" d="M383.477,78.995c0,0-0.526-18.648-20.93-13.427c0,0-11.452,3.028-13.427,19.877
	c0,0-2.501,18.429,19.264,19.658c0,0,13.163-0.087,16.323-14.393l-1.757-0.526c0,0-5.364,11.777-17.988,5.528
	c0,0-7.197-3.422-6.906-12.638L383.477,78.995z"/>
<path fill="#B1CBE1" d="M358.682,79.666c0,0,0.684-8.579,6.758-11.165c0,0,3.949-1.861,6.672,1.472c0,0,2.521,3.028,2.459,6.751
	C374.57,76.724,373.778,78.453,358.682,79.666z"/>
<ellipse fill="#3D4259" cx="447.401" cy="85.181" rx="18.824" ry="20.798"/>
<ellipse transform="matrix(0.9852 -0.1717 0.1717 0.9852 -7.9696 77.9966)" fill="#B1CBE1" cx="447" cy="85.08" rx="9.455" ry="15.461"/>
<path fill="#3D4259" d="M464.592,70.459c0,0,10.329-3.459,15.068-6.459H479v6.438c0,0,13.844-9.675,24.64-4.213
	c0,0,5.868,2.172,4.813,9.829l-0.489,20.711c0,0-0.964,3.335,10.036,4.738v2.633l-20.048-0.396l0.2-24.803
	c0,0,0.189-7.361-7.753-7.913c0,0-7.214-1.465-7.915,6.257c0,0-1.765,13.815,1.748,21.037c0,0,0.213,1.868,6.489,3.536l-1.071,1.821
	L463,103.413v-2.436c0,0,8,0.921,8-8.227V75.703C471,75.703,472.061,71.893,464.592,70.459z"/>
<ellipse transform="matrix(0.4303 0.9027 -0.9027 0.4303 300.2411 -321.8154)" fill="#3D4259" cx="405.088" cy="76.967" rx="13.113" ry="16.404"/>
<path fill="#B1CBE1" d="M411.383,75.637c1.486,5.722-0.381,11.116-4.171,12.05c-3.792,0.934-8.068-2.949-9.556-8.672
	c-1.486-5.723,0.382-11.117,4.174-12.051C405.617,66.03,409.898,69.913,411.383,75.637z"/>
<path fill="#3D4259" d="M384.707,114.844c0,0,16.805,13.25,43.702,0.526c0,0,8.381-5.31,3.331-11.496c0,0-6.008-6.187-29.483-7.108
	c0,0-10.794,0.1-5.11-6.861l-0.857-1.794c0,0-15.273,7.889-3.296,12.552c0,0,32.898,4.44,25.757,9.587c0,0-17.217,6.75-27.396-1.25
	c0,0-3.618-3.897,5.792-10.68l-3.944-1.076C393.201,97.244,377.164,107.938,384.707,114.844z"/>
<path fill="#3D4259" d="M414.281,66.54c0,0,5.649-4.544,15.005-2.157l-1.448,2.896c0,0-6.976-1.884-11.451,0.705L414.281,66.54z"/>
<path fill="#3D4259" d="M565.594,338.021c0,0,2.391,5.682,11.16,5.82c0,0-0.139-3.758,1.531-7.237c0,0,2.365-4.454-1.67-6.82
	c0,0,3.758-1.275,5.706,0.685c0,0-1.531-3.607,1.391-7.504c0,0,3.481-5.289,1.811-8.074c0,0,2.923,2.229,2.088,10.301l2.228,0.139
	l-1.114,3.758l5.707-0.974l-3.897,6.403c0,0,6.82,4.453,6.82,8.906c0,0,3.313,11.91,16.387,14.718c0,0,20.593,2.858,21.26,4.858
	h-87.198c0,0-0.139-9.857-5.565-4.568c0,0-1.392,2.658-2.089-3.885c0,0-1.532-2.848-4.872,5.087c0,0-2.505,4.7-7.794-0.31
	c0,0,7.794,0.818,1.531-5.862c0,0-2.221-3.329-3.62-6.132c0,0-2.783-5.153,3.063-6.963c0,0-4.732-2.925-8.769,2.642
	c0,0,0.557-7.655-2.505-9.327c0,0-1.115,3.34-0.557,6.123l-3.341,0.416l1.948,5.566c0,0-3.063-3.483-5.568-1.535
	c0,0-1.53,1.107,3.202,5.422l-1.811,1.377l0.976,3.869c0,0-9.743,1.354-4.316,4.556c0,0,0.141,3.524-6.263,3.524h-38.119
	l9.333-14.065l4.667,1.065l7.098-13.896l7.303,5.436l8.519-14.309l-5.305-5.344l8.282-4.344l-3.824-3.857l6.826-1.855l-2.783-2.599
	l2.041-1.577l1.113-6.96l1.112,7.237l1.949,0.418l-0.835,2.924l4.594,1.18L512.032,316h3.479l-4.315,3.621l6.682,0.767
	c0,0-3.201,7.135,0.695,7.83l6.96-9.655c0,0,2.088-4.062-2.088-5.315l4.176-1.126c0,0,0.278-3.068-2.088-4.322l3.062-0.559
	l0.695-5.152l1.81,6.958c0,0,2.644-0.14,3.201,4.732c0,0,1.53,6.402,4.732,3.062c0,0-1.81,7.655,2.505,7.934
	c0,0,5.011-1.252,1.254-4.593c0,0,4.175-0.14,2.086-5.149c0,0,1.394-0.697,3.062,3.34c0,0,1.81-3.34-2.365-7.098
	c0,0,3.828-1.254,2.68-8.631c0,0,3.165,1.113,2.331,8.352l6.264-0.418L552.334,316l9.667,2l-8,5.558c0,0,1.666,6.109,7.333,6.776
	l6-0.334C567.334,330,563.369,334.197,565.594,338.021z"/>
</svg>
