<?xml version="1.0" encoding="utf-8"?>
<!-- Generator: Adobe Illustrator 19.1.0, SVG Export Plug-In . SVG Version: 6.00 Build 0)  -->
<svg version="1.1" id="Layer_1" xmlns="http://www.w3.org/2000/svg" xmlns:xlink="http://www.w3.org/1999/xlink" x="0px" y="0px"
	 viewBox="0 0 800 400" enable-background="new 0 0 800 400" xml:space="preserve">
<g>
	
		<image overflow="visible" opacity="0.2" width="755" height="369" xlink:href="75FE9AA2EEA4E179.png"  transform="matrix(1 0 0 1 19 21)">
	</image>
	<g>
		<path fill="#E2E2E2" d="M767,46c0-13.255-10.745-24-24-24H43c-13.255,0-24,10.745-24,24v314c0,13.255,10.745,24,24,24h700
			c13.255,0,24-10.745,24-24V46z"/>
	</g>
</g>
<g>
	
		<image overflow="visible" opacity="0.2" width="723" height="334" xlink:href="75FE9AA2EEA4E17B.png"  transform="matrix(1 0 0 1 32 36)">
	</image>
	<g>
		<path fill="#EFEFEF" d="M748,63c0-11.046-8.954-20-20-20H58c-11.046,0-20,8.954-20,20v281c0,11.046,8.954,20,20,20h670
			c11.046,0,20-8.954,20-20V63z"/>
	</g>
</g>
<path fill="#F9F9F9" d="M42,65.334c3.531-20.05,16-22.666,16-22.666C38.104,42.659,38,62,38,62s-2.369,14.698,0,52.5
	C38,114.5,39.666,78.584,42,65.334z"/>
<rect x="619.023" y="72.876" transform="matrix(0.9963 -0.0864 0.0864 0.9963 -5.7061 57.5347)" fill="#3A8039" width="85.126" height="43.575"/>
<rect x="619.023" y="72.876" transform="matrix(0.9998 0.0209 -0.0209 0.9998 2.1194 -13.7844)" fill="#050505" width="85.127" height="43.577"/>
<g>
	<path fill="#EFEFEF" d="M640.54,102.143l5.193-5.379c2.404-2.496,3.244-3.449,3.278-5.129c0.033-1.549-0.499-2.268-2.619-2.312
		c-1.512-0.031-3.286,0.483-4.244,1.119l-1.424-3.205c1.681-1.042,3.141-1.562,6.079-1.502c3.716,0.078,5.573,1.64,5.491,5.575
		c-0.062,2.966-1.255,4.726-3.808,7.351l-3.284,3.396l7.032,0.146l-0.071,3.411l-11.691-0.243L640.54,102.143z"/>
	<path fill="#EFEFEF" d="M655.825,95.93c0.138-6.56,2.037-9.984,7.032-9.881c4.912,0.104,6.708,3.605,6.571,10.166
		c-0.137,6.533-2.077,9.984-6.99,9.881C657.443,105.992,655.69,102.464,655.825,95.93z M666.028,96.144
		c0.086-4.12-0.541-6.286-3.249-6.343c-2.729-0.057-3.467,2.081-3.553,6.201c-0.085,4.093,0.559,6.469,3.286,6.525
		C665.221,102.584,665.942,100.236,666.028,96.144z"/>
	<path fill="#EFEFEF" d="M675.153,90.301l-2.644-0.055l0.077-3.699l5.877,0.123l-0.405,19.442l-3.233-0.067L675.153,90.301z"/>
	<g>
		<path fill="#EFEFEF" d="M683.932,105.588v-2.82c0.983,0.658,1.879,0.987,2.69,0.987c0.796,0,1.435-0.308,1.92-0.923
			c0.483-0.615,0.726-1.427,0.726-2.436c0-1.213-0.358-2.191-1.075-2.936c-0.717-0.742-1.949-1.114-3.697-1.114h-0.281v-9.511h8.629
			v3.153h-6.207l-0.486,3.896c2.371,0.256,4.086,0.991,5.148,2.204c1.062,1.214,1.591,2.598,1.591,4.153
			c0,1.632-0.539,3.046-1.618,4.242c-1.079,1.196-2.464,1.794-4.156,1.794C686.232,106.279,685.172,106.049,683.932,105.588z"/>
	</g>
</g>
<g>
	<rect x="528.299" y="72.473" fill="#1045AF" width="88" height="46"/>
	<g>
		<rect x="539.299" y="85.527" fill="none" width="74" height="51"/>
		
			<text transform="matrix(1.1 0 0 1.25 539.2988 110.1997)" fill="#FFFFFF" font-family="'LucidaSansTypewriterOT-Bold'" font-size="32px">SEP</text>
	</g>
</g>
<path fill="#FFFFFF" stroke="#848484" stroke-miterlimit="10" d="M171.5,60.5c0,3.866-3.134,7-7,7h-9c-3.866,0-7-3.134-7-7l0,0
	c0-3.866,3.134-7,7-7h9C168.366,53.5,171.5,56.634,171.5,60.5L171.5,60.5z"/>
<path fill="#FFFFFF" stroke="#848484" stroke-miterlimit="10" d="M631.5,60.5c0,3.866-3.134,7-7,7h-9c-3.866,0-7-3.134-7-7l0,0
	c0-3.866,3.134-7,7-7h9C628.366,53.5,631.5,56.634,631.5,60.5L631.5,60.5z"/>
<path fill="#FFFFFF" stroke="#848484" stroke-miterlimit="10" d="M171.5,345.5c0,3.866-3.134,7-7,7h-9c-3.866,0-7-3.134-7-7l0,0
	c0-3.866,3.134-7,7-7h9C168.366,338.5,171.5,341.634,171.5,345.5L171.5,345.5z"/>
<g>
	<path fill="#EFEFEF" d="M624.47,82.663h2.376l1.199,4.467l1.287-4.467h2.068l1.299,4.467l1.199-4.467h2.233l-2.409,8.208h-2.024
		l-1.396-4.786l-1.397,4.786h-2.024L624.47,82.663z"/>
	<path fill="#EFEFEF" d="M629.129,93.608h2.321l3.289,8.207h-2.365l-0.407-1.056h-3.477l-0.406,1.056h-2.223L629.129,93.608z
		 M631.241,98.889l-1.013-2.596l-1.012,2.596H631.241z"/>
</g>
<rect x="77" y="79.027" fill="none" width="563.385" height="62"/>
<text transform="matrix(1 0 0 1 77 115.0186)"><tspan x="0" y="0" fill="#B43C25" font-family="'FranklinGothic-Medium'" font-size="54px" letter-spacing="-1">W</tspan><tspan x="46.348" y="0" fill="#B43C25" font-family="'FranklinGothic-Medium'" font-size="54px">A</tspan><tspan x="78.372" y="0" fill="#B43C25" font-family="'FranklinGothic-Medium'" font-size="54px" letter-spacing="-1">SHINGTON</tspan></text>
<path fill="#73ACD6" d="M38,287.11c0,0,44.888-33.298,72.395-31.005L146.114,240h15.472l44.129-29.588l22.923,6.979
	c0,0,55.015-19.431,119.201-75.594c0,0,15.473-12.014,29.227,0.025c0,0,5.158,7.459,15.604,2.302c0,0,23.365-12.03,43.995,0.005
	l18.912,1.721l64.759,57.315l7.449-9.174c0,0,33.239,17.771,53.869,34.964l25.215-2.865c0,0,37.825,17.766,64.186,42.981
	l29.801-6.876c0,0,10.313,10.315,19.483,16.045l11.252,9.162c0,0,9.299,5.165,16.409,6.311v49.854c0,0-0.152,19.434-18.491,19.434
	H57.31c0,0-19.206,0.54-19.31-24.622V287.11z"/>
<path fill="#FFFFFF" stroke="#848484" stroke-miterlimit="10" d="M631.5,345.5c0,3.866-3.134,7-7,7h-9c-3.866,0-7-3.134-7-7l0,0
	c0-3.866,3.134-7,7-7h9C628.366,338.5,631.5,341.634,631.5,345.5L631.5,345.5z"/>
<path fill="#FFFFFF" stroke="#848484" stroke-miterlimit="10" d="M171.5,345.5c0,3.866-3.134,7-7,7h-9c-3.866,0-7-3.134-7-7l0,0
	c0-3.866,3.134-7,7-7h9C168.366,338.5,171.5,341.634,171.5,345.5L171.5,345.5z"/>
<path fill="#F9F9F9" d="M39.758,354.131c0,0,1.702-75.839-0.691-193.898C39.216,157.533,27.752,356.74,39.758,354.131z"/>
<path fill="#BFD4D3" d="M193.679,246.059c0,0-3.679,7.941-17.159,5.86c0,0-11.02,4.081,0,19.329c0,0,10.066,8.202,6.75,17.573
	c0,0-6.27,18.179,20.018,4.686c0,0,11.713-7.507,0-19.917c0,0,5.713-10.15,17.159-2.563c0,0,12.554,12.772,38.435,0
	c0,0,9.069-7.587,25.92-15.862c0,0,26.361-10.888,14.9-23.497c0,0-16.201-10.167-42.879,7.302c0,0-14.322,8.531-29.93-5.21
	C226.893,233.759,210.838,215.6,193.679,246.059z"/>
<path fill="#BFD4D3" d="M347.267,160.602c0,0-5.731,12.033-22.924,17.766c0,0-17.843,5.133,0,20.631
	c0,0,22.657,11.502,22.924,37.823c0,0-7.454,38.392,21.772,34.381c0,0,19.484-14.896,17.191-49.854c0,0,0.188-18.248-24.068-26.364
	c0,0-13.07-2.46-3.47-27.483C358.692,167.5,363.598,141.695,347.267,160.602z"/>
<path fill="#BFD4D3" d="M386.418,155.1c0,0-12.002-11.685-22.82-13.404c0,0-9.098-0.695,0,10.316c0,0,12.402,10.988,9.689,22.35
	c0,0,0.625,17.193,19.537,24.929c0,0,14.613,22.35,0,62.9c0,0-12.895,26.491-27.508,33.802c0,0-15.377,12.471,34.002,39.978
	c0,0-2.107-20.587-12.9-34.385c0,0,22.738,7.737,30.475,28.367c0,0,19.772-10.325,17.193-33.961c0,0-14.613-40.826-18.051-88.106
	C416.035,207.886,428.151,177.958,386.418,155.1z"/>
<path fill="#BFD4D3" d="M395.52,155.1c0,0,2.222-13.404,37.078-4.808c0,0,27.275,3.438,14.383,27.508c0,0-6.98,14.2,19.772,30.086
	c0,0,15.474,9.245,9.456,30.842c0,0,24.928-8.895-8.596-45.656c0,0-10.317-16.131-1.722-28.166c0,0,25.789,20.279,55.018,48.393
	c6.344,1.537,28.373,8.104,42.98,28.395c0,0-23.211,20.497-9.456,74.505c0,0-36.965,0.297-43.84-54.008
	c0,0-13.755,24.782-7.737,73.78c0,0-66.19-26.647-66.19-115.188C436.665,220.782,443.5,189,395.52,155.1z"/>
<path fill="#BFD4D3" d="M605.15,238.727c0,0-30.947-5.053-39.543,32.77c0,0-7.107,21.003,38.683,17.193
	c0,0,27.508,14.614,30.087,40.403C634.377,329.094,678.953,261.285,605.15,238.727z"/>
<rect x="233.638" y="335.54" fill="none" width="312.362" height="28"/>
<text transform="matrix(1.06 0 0 1 250.8843 356.8682)" fill="#B43C25" font-family="'FranklinGothic-Medium'" font-size="32px">EVERGREEN STATE</text>
</svg>
